<?xml version="1.0" encoding="UTF-8"?>
<svg id="Layer_1" data-name="Layer 1" xmlns="http://www.w3.org/2000/svg" viewBox="0 0 64 64">
  <path d="M18.03,36.02c.2-.62.35-1.26.62-1.86.96-2.13,1.97-4.23,2.94-6.36.54-1.19,1.02-2.42,1.56-3.61.42-.92.24-1.78-.12-2.67-.32-.79-.5-1.64-.88-2.4-.77-1.54-.21-2.71.85-3.83,2.04-2.15,4.09-4.31,6.09-6.51.57-.63.94-1.44,1.51-2.07.58-.65,1.26-1.23,1.97-1.74,1.17-.85,2.39-1.63,3.6-2.41.46-.29.98-.5,1.8-.91,0,.67.09,1.12-.02,1.52-.39,1.52-.76,3.06-1.29,4.54-.33.92,0,1.57.51,2.17.64.73.67,1.34.03,2.09-2.99,3.56-5.59,7.4-8.09,11.32-.14.22-.27.46-.34.71-.13.51-.21,1.02-.31,1.54.56.1,1.14.37,1.68.29,2.14-.33,4.27-.76,6.39-1.18.84-.17,1.66-.52,2.51-.57.94-.06,1.63.21,1.76,1.48.09.85.81,1.69,1.38,2.43,1.01,1.31,2.14,2.53,3.17,3.82.66.83.83,1.71.3,2.76-1.43,2.82-2.9,5.63-4.11,8.55-.66,1.61-1.08,3.41-1.17,5.15-.22,4.28-.18,8.57-.25,12.85,0,.62.1,1.53-.67,1.54-.86,0-.73-.92-.74-1.57,0-3.56-.07-7.12.03-10.68.05-1.77.44-3.54.61-5.31.11-1.16.17-2.33.14-3.49-.03-1.02-.28-2.03-.36-3.05-.29-3.3-.53-6.61-.82-9.91-.12-1.35-.91-1.74-2.15-1.11-1.03.52-2.04,1.07-3.05,1.63-1.14.64-2.32.68-3.54.28-.5-.16-1-.41-1.51-.42-.47-.02-1.24.08-1.38.37-.94,1.91-2.98,2.46-4.42,3.73-1.02.89-2.09,1.72-3.15,2.56-.24.19-.51.34-.76.51-.11-.06-.22-.13-.32-.19Z"/>
</svg>