<svg id="svg" version="1.1" width="800" height="800" xmlns="http://www.w3.org/2000/svg"><path d="M495.000 95.474 C 486.326 97.318,478.280 100.208,470.725 104.193 C 462.376 108.598,448.046 122.945,439.956 135.000 C 431.110 148.181,421.251 157.778,411.712 162.492 C 405.165 165.728,402.909 166.313,395.309 166.747 C 386.459 167.251,384.653 166.987,363.000 162.016 C 343.264 157.486,327.143 158.659,314.000 165.582 C 299.357 173.296,291.475 183.571,282.370 206.814 C 276.367 222.139,273.576 226.444,268.181 228.698 C 264.510 230.232,253.854 230.302,244.616 228.853 C 236.530 227.585,219.481 227.230,213.136 228.198 C 194.373 231.060,180.886 241.928,174.911 259.000 C 173.096 264.188,172.639 267.620,172.652 276.000 C 172.679 293.892,178.410 306.912,196.152 329.387 C 208.482 345.006,214.226 347.255,228.323 341.980 C 239.960 337.626,253.769 327.816,270.417 312.076 C 291.798 291.861,299.025 287.805,314.000 287.610 C 321.423 287.514,323.225 287.856,328.225 290.311 C 331.936 292.134,335.470 294.948,338.270 298.311 C 342.364 303.228,348.000 311.406,348.000 312.430 C 348.000 313.484,362.614 337.996,367.322 344.838 C 377.277 359.305,390.349 370.038,408.414 378.577 C 431.277 389.383,452.969 391.075,482.883 384.386 C 499.724 380.620,513.390 375.670,532.500 366.415 C 543.727 360.978,545.315 359.025,551.130 343.500 C 563.015 311.772,569.872 303.997,585.215 304.849 C 592.309 305.243,599.973 317.060,599.990 327.628 C 600.014 342.705,592.313 349.812,566.500 358.537 C 558.212 361.338,554.799 363.025,552.657 365.377 L 549.813 368.500 550.282 381.000 C 551.099 402.823,555.802 415.258,570.809 435.275 C 575.664 441.751,582.081 451.363,585.068 456.634 C 592.137 469.105,595.217 471.526,608.675 475.184 C 625.039 479.632,629.368 482.245,648.950 499.494 C 665.914 514.437,675.332 521.873,687.600 530.012 C 701.602 539.302,716.519 546.148,725.677 547.490 C 727.230 547.718,729.625 548.188,731.000 548.537 C 738.821 550.516,783.661 552.360,795.750 551.198 L 800.000 550.790 800.000 420.023 L 800.000 289.256 796.250 288.738 C 794.188 288.453,790.060 288.145,787.077 288.053 C 784.095 287.961,780.850 287.455,779.868 286.929 C 778.885 286.403,777.725 286.070,777.291 286.189 C 775.615 286.647,768.419 284.744,764.755 282.875 C 762.644 281.798,759.118 279.118,756.919 276.919 C 750.114 270.114,749.773 268.355,749.371 238.000 C 749.017 211.249,748.183 203.537,744.357 191.632 C 740.055 178.245,733.807 168.726,722.187 157.856 C 705.362 142.117,688.286 135.775,663.000 135.873 C 653.403 135.910,647.713 136.527,638.500 138.528 C 616.401 143.329,609.852 144.243,601.290 143.724 C 586.522 142.829,575.676 136.222,552.705 114.129 C 533.835 95.981,531.248 94.658,514.000 94.330 C 506.256 94.183,499.027 94.618,495.000 95.474 M234.230 399.572 C 227.532 401.348,224.403 403.001,219.860 407.164 C 213.596 412.904,209.571 423.183,208.523 436.112 C 207.680 446.510,209.095 455.718,213.152 466.238 C 215.946 473.483,218.357 477.539,228.335 491.781 C 238.522 506.320,241.388 514.815,247.050 547.252 C 250.463 566.804,252.785 574.760,258.564 586.705 C 265.271 600.569,272.684 609.021,282.748 614.276 C 311.185 629.128,347.517 625.530,370.677 605.570 C 379.690 597.801,389.366 582.093,392.436 570.247 C 397.223 551.775,394.259 529.924,384.863 514.422 C 380.256 506.820,370.904 496.746,363.646 491.567 C 360.256 489.148,349.161 483.004,338.991 477.914 C 314.886 465.850,311.958 463.088,302.528 443.521 C 294.340 426.530,290.823 421.001,283.916 414.255 C 271.381 402.011,249.464 395.534,234.230 399.572 " stroke="none" fill="black" fill-rule="evenodd"/></svg>