<?xml version="1.0" encoding="UTF-8"?>
<svg id="Layer_1" data-name="Layer 1" xmlns="http://www.w3.org/2000/svg" viewBox="0 0 128 128">
  <defs>
    <style>
      .cls-1 {
        fill: none;
        stroke: gray;
        stroke-miterlimit: 10;
        stroke-width: 8px;
      }
    </style>
  </defs>
  <path class="cls-1" d="M64.25,39.82c2.7.07,5.54,2.06,8.48,2.22,3.05.17,6.77-1.55,9.48-.08,5.21,2.82,4.72,9.71,7.43,14.32,2.56,4.36,7.1,4.89,7.68,10.82.73,7.48.6,13.1-.29,20.53-.47,3.93.06,7.33-3.27,10.14-2.44,2.06-5.65,3.03-8.74,3.59-4.73.87-15.79,2.57-20.08,1.04-3.99-2.57-8.5-4.66-12.39-7.35-2.98-2.06-5.94-5.34-9.32-6.57-3.87-1.41-8.28-1.43-11.9-3.52-4.01-3.96-10.46-7.54-13.8-11.96-5.06-6.68,1.89-9.66,7.23-11.55,2.65-.94,4.69-1.2,7.16.4,1.26.82,3,3.13,4.7,2.05.63-.39,1.31-4.5,1.71-5.53.86-2.2,3.51-5.6,5.59-6.75,1.9-1.05,4.47-1.36,6.32-2.63,1.56-1.07,2.5-2.66,3.82-3.89,2.09-1.94,7.32-5.39,10.17-5.31ZM66.46,57.82c-4.35.34-6.44,2.78-7.64,6.71-1.54,5.03-3.23,10.89-2.31,16.1s2.49,9.65,8.78,8.41c2.69-.53,4.51-2.68,6.8-3.99s7.62-2.98,8.51-5.37c1.01-2.72-1.78-4.72-3.13-6.74-2.43-3.62-2-6.13-3.19-9.92s-3.99-5.5-7.82-5.2Z"/>
  <path class="cls-1" d="M82.49,17.87c2.42-.31,6.9.59,7.82,3.2,1.05,2.96-.99,5.74-2.57,8.06-2.14,3.14-4.92,7.53-9.06,4.33-6.65-5.13-4.86-14.49,3.8-15.6Z"/>
</svg>