<svg id="svg" version="1.1" width="800" height="800" xmlns="http://www.w3.org/2000/svg"><path d="M484.000 1.042 C 484.000 2.200,480.825 9.140,471.432 28.512 C 464.588 42.629,459.917 56.201,457.843 68.000 C 455.708 80.139,456.222 107.884,458.890 124.500 C 466.333 170.865,469.346 205.452,467.076 218.487 C 463.640 238.217,454.798 245.672,416.167 261.408 C 381.574 275.499,369.812 283.266,354.779 301.940 C 338.816 321.770,326.983 343.159,322.293 360.663 C 319.797 369.978,319.654 371.800,319.589 395.000 C 319.514 422.286,320.384 429.286,326.680 452.000 C 332.368 472.522,333.188 477.017,333.179 487.619 C 333.166 502.465,330.804 512.992,322.547 535.000 C 306.508 577.748,300.734 607.558,303.904 631.251 C 307.057 654.816,321.703 690.125,335.309 706.960 C 349.189 724.134,382.707 746.599,406.000 754.340 C 417.750 758.245,427.790 759.470,447.000 759.344 C 469.928 759.194,488.704 756.235,502.600 750.581 C 515.555 745.311,527.264 737.625,548.319 720.572 C 585.116 690.771,591.460 686.538,605.417 682.481 C 614.607 679.809,629.584 680.854,650.000 685.589 C 666.169 689.340,666.901 689.417,686.500 689.442 C 708.190 689.470,720.045 688.066,738.500 683.286 C 751.557 679.903,761.218 675.705,776.783 666.648 C 783.777 662.578,791.862 658.059,794.750 656.607 L 800.000 653.966 800.000 348.079 L 800.000 42.191 792.819 38.475 C 774.259 28.871,746.990 10.847,740.054 3.600 L 736.608 0.000 610.304 0.000 C 523.397 0.000,484.000 0.325,484.000 1.042 " stroke="none" fill="black" fill-rule="evenodd"/></svg>