<?xml version="1.0" encoding="utf-8"?>
<!-- Generator: Adobe Illustrator 28.0.0, SVG Export Plug-In . SVG Version: 6.00 Build 0)  -->
<svg version="1.1" id="svg" xmlns="http://www.w3.org/2000/svg" xmlns:xlink="http://www.w3.org/1999/xlink" x="0px" y="0px"
	 viewBox="0 0 594 365" style="enable-background:new 0 0 594 365;" xml:space="preserve">
<style type="text/css">
	.st0{fill-rule:evenodd;clip-rule:evenodd;}
</style>
<path class="st0" d="M79.6,113.2c-0.3,2.4-1,16.8-1.6,31.9s-1.3,31.2-1.7,35.8c-0.6,7.9-0.7,8.2-3.1,8.2c-4,0-6.3,1.8-6.3,4.9
	c0,1.6,0.6,3.3,1.2,3.9c0.7,0.6,7.2,1.3,14.5,1.7c7.3,0.4,13.4,1,13.6,1.4c0.2,0.4,0,7.8-0.4,16.6c-0.6,11.8-0.5,16.2,0.4,16.7
	c0.6,0.4,5.3,0.7,10.3,0.8c5,0,9.9,0.3,10.7,0.6c2.4,0.9,2.7,5.4,1.8,22.9c-0.5,8.8-0.5,16.4-0.1,16.9c0.7,0.8,41.7,3.2,42.4,2.4
	c0.2-0.2,0.9-12.3,1.5-26.8c1.3-31.5,1.5-33.2,3.8-32.8c1,0.2,1.8,1.4,2,2.9c0.3,2.5,0.6,2.6,8.5,3.2c4.5,0.4,10.1,0.6,12.4,0.6
	l4.2,0v-5.9c0-3.2,0.3-8.6,0.6-12l0.6-6.1h14.8c8.9,0,14.9,0.4,15.1,1c0.2,0.5-0.2,12.4-0.8,26.2c-0.6,13.9-0.9,25.6-0.5,25.9
	c0.4,0.4,9.6,1,20.6,1.5c28.2,1.2,25.9,1.3,26.5-2.2c0.4-2.1,1.2-3.1,2.6-3.3c2-0.3,2.2-1,2.8-14.5c1.2-26.6,1.8-33.6,3-33.9
	c0.6-0.2,8-0.2,16.5,0l15.4,0.3l-0.8,21.2c-0.4,11.6-0.8,22.5-0.9,24.2c-0.1,2.8,0.1,3,3.9,3.2c2.2,0.1,7.7,0.5,12.2,0.8l8.2,0.6
	l0.3,8.7l0.3,8.7l24.5,1.2c13.5,0.7,25.1,1,25.8,0.8c0.8-0.3,1.2-2.4,1.2-5.9v-5.5l11.2-0.3l11.2-0.3l1.2-23.5
	c0.6-12.9,1.2-25.7,1.2-28.3c0.1-3.4,0.5-4.7,1.3-4.4c0.9,0.3,1.3,4,1.3,13.8c0,7.4,0.4,14,0.8,14.7c0.5,0.9,3.9,1.2,11.1,1.2h10.3
	l0.6-3.1c0.3-1.7,0.6-6.6,0.6-10.9c0-5.5,0.4-8.1,1.4-8.9c0.8-0.7,1.7-2.5,2.1-4.2l0.7-3l49.3,0.7l49.3,0.7l1.7-2.6
	c1.6-2.4,1.6-2.9,0.2-5c-1.4-2.2-2.3-2.4-15.3-3c-7.6-0.4-19.3-0.7-26-0.7c-7.2,0-12.4-0.4-12.6-1c-0.2-0.5,0-8.9,0.5-18.6
	c0.4-9.7,0.6-17.8,0.4-18c-0.8-0.8-36.2-2.2-37-1.4c-0.4,0.4-1.2,9-1.7,19c-0.5,10-1.2,18.7-1.5,19.2c-0.6,1-73.5,0.1-74.6-1
	c-0.4-0.3,0-14.3,0.8-31.1s1.3-33.4,1.2-37l-0.3-6.5l-24-1.1c-13.2-0.6-24.3-0.9-24.6-0.5c-0.3,0.4-1.1,12.6-1.8,27.1
	c-0.6,14.6-1.4,31.6-1.8,37.8l-0.6,11.2h-10.5h-10.5l0.4-16.8l0.4-16.8h-12h-12l-0.6,12c-0.3,6.6-0.7,14.1-0.8,16.8l-0.1,4.8h-15.5
	c-12.3,0-15.6-0.3-16.1-1.4c-0.3-0.8,0.2-17,1.1-36.1c0.9-19.1,1.3-35.1,0.8-35.5c-0.4-0.4-9.5-1.1-20.1-1.5l-19.2-0.7l0,2.4
	c0,1.3-0.7,15.9-1.5,32.4s-1.5,32.1-1.5,34.8l0,4.8l-39.8,0c-21.9,0-40.4-0.4-41.2-0.9c-1.2-0.8-1.2-6.1,0.3-39.1
	c1-21,1.4-38.6,0.9-39c-0.4-0.4-10.8-1.1-23-1.5l-22.2-0.7L79.6,113.2"/>
</svg>
