<svg id="svg" version="1.1" width="800" height="800" xmlns="http://www.w3.org/2000/svg"><path d="M310.602 4.250 C 321.446 15.719,342.699 38.691,343.816 40.151 C 344.935 41.612,331.541 51.186,226.657 123.887 C 161.524 169.034,107.569 206.228,106.756 206.540 C 105.943 206.852,87.335 201.714,65.405 195.121 C 43.474 188.529,25.342 183.325,25.110 183.556 C 24.879 183.787,19.247 201.869,12.595 223.738 L 0.500 263.500 0.242 382.870 L -0.016 502.241 2.242 500.758 C 5.378 498.698,75.185 446.050,76.862 444.480 C 77.994 443.420,73.474 436.900,50.127 405.920 C 34.674 385.414,22.229 368.438,22.472 368.195 C 22.962 367.705,408.716 589.492,410.829 591.479 C 412.411 592.968,415.148 589.620,361.500 651.823 C 340.050 676.694,322.377 697.404,322.226 697.845 C 322.075 698.286,347.050 720.279,377.726 746.718 C 408.402 773.158,434.761 795.962,436.302 797.395 C 440.223 801.042,443.858 800.804,447.144 796.687 C 448.598 794.864,471.460 768.239,497.948 737.519 C 543.903 684.222,546.026 681.586,544.304 679.963 C 543.312 679.027,519.663 658.605,491.750 634.582 C 463.837 610.558,441.000 590.681,441.000 590.411 C 441.000 590.140,441.962 588.618,443.137 587.028 L 445.275 584.137 449.887 585.992 C 452.424 587.013,473.375 596.659,496.444 607.429 C 519.514 618.199,538.678 626.671,539.031 626.256 C 541.112 623.807,590.991 514.599,590.319 513.963 C 588.140 511.901,478.756 461.859,478.096 462.622 C 477.678 463.105,467.971 483.650,456.526 508.278 C 445.081 532.907,435.291 553.320,434.771 553.641 C 434.251 553.963,433.455 553.837,433.002 553.363 C 432.548 552.888,418.858 446.782,402.578 317.571 L 372.977 82.642 377.867 78.071 C 380.556 75.557,383.498 72.038,384.404 70.250 C 385.310 68.463,386.419 67.000,386.869 67.000 C 387.319 67.000,390.306 67.901,393.508 69.003 C 396.709 70.104,399.494 70.839,399.697 70.637 C 400.634 69.699,411.029 35.518,410.665 34.569 C 410.438 33.978,406.371 32.230,401.626 30.685 C 396.882 29.140,392.982 27.566,392.960 27.188 C 392.938 26.810,399.125 20.550,406.710 13.277 L 420.500 0.054 363.542 0.027 L 306.584 0.000 310.602 4.250 M355.000 96.384 C 355.000 97.399,410.049 533.925,410.534 536.750 C 410.898 538.876,410.688 540.000,409.926 540.000 C 408.055 540.000,86.621 354.626,87.806 354.231 C 88.398 354.034,95.736 355.926,104.113 358.436 C 112.490 360.946,120.146 363.000,121.125 363.000 C 122.281 363.000,123.225 361.859,123.816 359.750 C 127.206 347.640,163.352 228.056,163.863 227.260 C 164.944 225.576,352.371 96.000,353.726 96.000 C 354.427 96.000,355.000 96.173,355.000 96.384 " stroke="none" fill="black" fill-rule="evenodd"/></svg>