<?xml version="1.0" encoding="UTF-8"?>
<svg id="Layer_1" data-name="Layer 1" xmlns="http://www.w3.org/2000/svg" viewBox="0 0 128 128">
  <defs>
    <style>
      .cls-1 {
        fill: gray;
      }
    </style>
  </defs>
  <path class="cls-1" d="M97.36,32.75c-2.45-2.54-8.43-2.36-12.39-2.34-6.98-.2-16.98,1.91-6.83,8.61,3.06,2.04.62,5.09-1,7.64-2.29,3.4-4.92,7.25-7.32,10.78-2.63,3.33-6.16,10.77-9.49,10.96-1.82-.11-3.4-3.5-5.4-7.54-1.92-3.97-3.93-8.05-5.73-12.07-1.39-2.99-2.23-6.52.33-8.97,1.79-2.13,5.23-4.11,4.62-6.11-1.58-2.96-5.54-3.02-8.71-3.26-4.35.13-13.61-1.04-15.35,3.46-.2,2.13,1.76,4.15,3.11,6.03,1.69,2.21,3.71,4.36,5.44,7.38,5.34,10.68,11.25,23.85,16.8,33.46,2.84,4.75,5,9.3,9.39,12.48,6.25,4.38,16.28,4.45,24.25,4.31,6.98.04,13.24-5.47,2.98-8.05-2.78-.57-6.46-.41-9.85-.68-10.65-.46-20.31-5.17-12.11-16.27,5.06-7.48,13.91-20.47,18.44-27.18,1.35-2.13,3.23-4.1,5.14-5.47,1.95-1.64,5.6-4.52,3.76-7.09l-.07-.08Z"/>
</svg>