<svg id="svg" version="1.1" width="800" height="800" xmlns="http://www.w3.org/2000/svg"><path d="M499.000 2.074 C 499.000 4.870,492.581 29.328,489.929 36.638 C 481.967 58.583,477.437 67.382,471.003 73.400 C 458.741 84.870,439.200 82.928,414.646 67.798 C 388.610 51.755,374.367 46.702,355.000 46.638 C 341.083 46.591,333.190 48.396,320.500 54.525 C 302.248 63.342,290.244 77.079,275.564 105.948 C 264.955 126.813,255.400 138.282,244.673 143.027 C 236.487 146.647,230.514 146.558,206.500 142.457 C 188.252 139.340,182.027 138.690,170.000 138.647 C 162.025 138.618,153.785 138.912,151.688 139.302 C 127.175 143.850,101.717 159.298,87.442 178.289 C 81.088 186.742,73.603 202.532,70.278 214.500 C 67.746 223.616,67.508 225.915,67.590 240.500 C 67.668 254.463,68.018 257.773,70.336 266.500 C 73.356 277.869,80.017 292.402,85.784 300.205 C 91.282 307.645,105.461 320.805,114.134 326.519 C 124.474 333.331,135.387 338.154,151.000 342.812 C 158.425 345.028,167.081 347.806,170.236 348.986 C 183.603 353.989,195.875 365.360,204.434 380.673 C 221.200 410.668,233.288 421.370,255.500 425.884 C 273.028 429.446,289.567 426.529,324.760 413.672 C 343.099 406.972,349.783 405.540,359.302 406.274 C 369.798 407.083,377.156 410.213,399.500 423.377 C 424.589 438.159,448.867 450.161,460.321 453.446 C 479.355 458.906,496.512 459.138,536.000 454.472 C 565.131 451.030,579.189 450.354,586.068 452.063 C 589.055 452.805,591.725 453.454,592.000 453.505 C 594.297 453.933,600.072 456.477,616.118 464.132 C 638.245 474.688,646.535 477.111,660.500 477.102 C 676.758 477.092,687.388 473.228,696.815 463.899 C 702.414 458.359,707.164 449.901,709.116 442.000 C 711.324 433.061,710.721 417.380,707.577 402.000 C 702.859 378.922,703.599 372.277,713.669 347.250 C 716.601 339.962,721.399 328.038,724.331 320.750 C 734.082 296.518,734.946 291.644,735.993 255.000 C 737.134 215.082,737.490 214.209,765.000 183.772 C 769.675 178.600,777.954 167.648,783.397 159.434 C 788.840 151.220,794.803 142.811,796.647 140.747 L 800.000 136.994 799.968 72.247 C 799.941 16.900,799.723 7.218,798.468 5.559 C 797.661 4.491,797.000 2.804,797.000 1.809 C 797.000 0.072,791.085 0.000,648.000 0.000 L 499.000 0.000 499.000 2.074 " stroke="none" fill="black" fill-rule="evenodd"/></svg>