<svg id="svg" version="1.1" width="800" height="800" xmlns="http://www.w3.org/2000/svg"><path d="M508.500 46.022 C 494.725 48.787,482.703 56.723,470.246 71.274 C 452.158 92.402,442.128 101.884,418.000 120.666 C 389.278 143.023,285.383 221.201,275.500 227.893 C 253.089 243.067,238.000 247.495,222.482 243.453 C 217.061 242.041,212.416 239.782,188.630 226.987 C 174.380 219.322,156.939 214.468,139.540 213.325 C 113.434 211.610,83.140 223.236,63.791 242.397 C 53.122 252.961,43.126 269.853,37.398 287.000 C 34.678 295.141,34.560 296.282,34.600 314.000 C 34.638 330.625,34.901 333.463,37.200 342.000 C 42.954 363.368,56.434 382.860,75.353 397.168 C 85.471 404.820,94.930 409.314,115.917 416.442 C 138.345 424.058,145.738 427.779,153.422 435.316 C 160.688 442.443,165.589 451.318,169.654 464.712 C 171.923 472.187,172.335 475.442,172.411 486.500 C 172.493 498.507,172.302 499.920,169.909 505.000 C 164.286 516.935,155.252 522.172,127.000 529.875 C 98.925 537.529,92.351 540.557,75.500 553.588 C 65.992 560.940,50.835 576.117,44.629 584.500 C 33.188 599.953,26.043 620.863,22.934 647.996 C 19.608 677.022,28.407 707.871,48.237 736.711 C 63.658 759.137,100.232 781.765,129.434 786.947 C 139.511 788.735,163.370 788.245,176.639 785.976 C 205.570 781.030,227.097 768.804,249.979 744.322 C 263.493 729.863,268.970 720.618,279.496 694.500 C 285.777 678.912,288.160 674.353,298.204 658.703 C 312.143 636.984,315.902 628.027,323.682 598.000 C 327.545 583.089,328.236 578.947,328.350 570.000 C 328.582 551.914,325.053 542.929,309.875 522.956 C 295.282 503.753,289.542 490.562,279.002 452.007 C 271.785 425.606,269.664 413.699,269.651 399.500 C 269.634 382.375,272.309 374.524,282.420 362.017 C 294.148 347.508,334.872 316.150,353.225 307.494 C 370.131 299.521,381.504 299.114,389.566 306.192 C 394.358 310.399,397.089 315.362,403.554 331.612 C 420.134 373.287,439.587 393.985,473.379 405.903 C 497.172 414.295,512.201 413.938,552.711 404.020 C 585.194 396.067,587.336 396.143,610.134 406.058 C 617.739 409.366,627.418 412.956,631.641 414.036 C 654.383 419.852,676.358 412.110,686.899 394.568 C 694.627 381.707,696.269 368.823,693.587 342.073 C 691.824 324.487,692.156 316.838,695.046 308.394 C 697.608 300.908,700.444 296.927,713.495 282.500 C 726.856 267.729,732.350 259.850,737.579 247.956 C 746.879 226.805,747.144 203.303,738.333 181.129 C 731.485 163.898,715.688 147.308,697.500 138.247 C 684.366 131.704,673.823 130.012,643.038 129.509 C 605.210 128.890,600.406 126.201,585.846 97.500 C 576.375 78.829,571.384 71.490,562.542 63.233 C 547.270 48.970,526.603 42.388,508.500 46.022 " stroke="none" fill="black" fill-rule="evenodd"/></svg>