<svg id="svg" version="1.1" width="800" height="800" xmlns="http://www.w3.org/2000/svg"><path d="M569.594 103.644 C 565.796 104.458,560.460 106.253,557.736 107.634 C 552.862 110.103,541.592 120.780,525.940 137.754 C 514.660 149.988,504.558 154.000,485.039 154.000 C 479.614 154.000,471.649 154.679,467.338 155.508 C 463.027 156.337,454.100 157.473,447.500 158.031 C 440.900 158.590,432.575 159.531,429.000 160.122 C 422.689 161.166,409.596 166.914,404.918 170.695 C 395.709 178.138,390.365 188.244,387.060 204.468 C 385.832 210.500,384.182 216.681,383.394 218.204 C 377.240 230.106,361.360 238.500,345.000 238.500 C 336.216 238.500,331.730 236.582,323.000 229.093 C 308.863 216.966,294.566 210.821,280.000 210.609 C 262.646 210.357,255.592 216.248,248.999 236.500 C 244.262 251.050,238.521 258.945,227.195 266.483 C 220.410 270.999,216.023 275.976,212.635 283.000 C 209.973 288.519,209.501 290.632,209.510 297.000 C 209.521 305.715,211.529 310.165,220.286 320.882 C 229.410 332.049,237.037 334.239,250.393 329.526 C 261.271 325.687,266.952 321.279,275.854 309.769 C 285.520 297.273,287.164 295.701,293.512 292.886 C 302.374 288.958,311.202 289.821,331.676 296.618 C 339.990 299.377,347.943 299.670,357.188 297.557 C 360.660 296.764,367.325 295.825,372.000 295.471 C 383.858 294.574,386.232 293.811,397.005 287.438 C 402.227 284.349,411.070 279.621,416.655 276.931 C 428.561 271.196,432.506 267.281,437.745 256.000 C 442.449 245.869,445.224 242.427,451.077 239.461 C 460.539 234.666,466.488 233.794,486.753 234.230 C 506.255 234.650,512.677 233.728,523.500 228.953 C 527.923 227.001,532.635 226.390,536.250 227.300 C 538.313 227.819,540.000 228.639,540.000 229.122 C 540.000 229.605,540.500 230.000,541.111 230.000 C 541.722 230.000,545.435 233.307,549.361 237.349 C 557.340 245.563,560.358 247.980,573.937 257.027 C 591.025 268.411,594.631 273.729,604.529 302.133 C 612.213 324.182,615.900 329.312,631.407 339.525 C 642.218 346.645,647.161 351.460,649.842 357.484 C 651.172 360.471,651.524 370.299,650.470 375.000 C 649.243 380.475,648.776 388.019,649.404 392.210 C 650.052 396.530,654.573 403.000,656.944 403.000 C 657.525 403.000,658.000 403.379,658.000 403.842 C 658.000 405.041,665.066 407.000,669.391 407.000 C 671.567 407.000,675.806 405.612,679.849 403.576 C 683.589 401.693,689.540 399.656,693.074 399.050 C 710.181 396.118,715.989 393.750,722.676 386.982 C 729.370 380.206,734.880 368.410,739.941 350.020 C 742.199 341.818,742.611 330.358,740.912 323.000 C 739.217 315.657,739.474 297.494,741.446 285.183 C 744.193 268.033,743.561 263.849,734.997 242.500 C 722.107 210.367,722.951 211.357,691.500 191.502 C 688.200 189.419,684.488 186.541,683.251 185.107 C 680.543 181.969,676.685 174.008,673.264 164.500 C 668.164 150.326,662.122 139.222,654.636 130.262 C 639.133 111.708,632.175 107.360,612.651 104.024 C 598.563 101.618,579.818 101.452,569.594 103.644 M581.625 469.469 C 574.893 471.868,571.364 476.436,562.944 493.642 C 552.721 514.535,550.010 516.919,532.000 520.865 C 518.543 523.814,518.085 523.982,501.957 531.888 C 485.591 539.911,476.801 546.500,469.492 556.222 C 457.896 571.648,457.673 578.949,468.204 598.322 C 471.546 604.470,476.541 613.667,479.303 618.761 C 482.066 623.854,485.835 629.784,487.679 631.938 C 495.228 640.758,504.739 639.523,517.364 628.084 C 525.109 621.067,531.907 617.215,549.500 609.878 C 567.869 602.217,583.945 588.683,590.927 575.000 C 598.125 560.895,601.016 558.083,609.935 556.511 C 619.031 554.909,636.248 544.630,647.057 534.350 C 660.263 521.789,661.861 507.935,651.809 493.174 C 645.519 483.940,641.687 481.572,623.500 475.686 C 600.488 468.238,589.610 466.623,581.625 469.469 " stroke="none" fill="black" fill-rule="evenodd"/></svg>