<?xml version="1.0" encoding="UTF-8"?>
<svg id="Layer_1" data-name="Layer 1" xmlns="http://www.w3.org/2000/svg" viewBox="0 0 128 128">
  <defs>
    <style>
      .cls-1 {
        fill: none;
        stroke: gray;
        stroke-miterlimit: 10;
        stroke-width: 8px;
      }
    </style>
  </defs>
  <path class="cls-1" d="M89.96,26.69c4.64,4.24,8.47,9.33,11.98,14.59,2.61,3.77,4.34,8.35,3.96,12.97-.64,6.24-2.28,10.73-.98,16.49.87,4.06,1.2,8.38-.68,12.29-3.05,6.89-8.84,13.08-15.92,15.92-2.43.98-5.26,1.09-7.63.56-3.17-.66-6.13-1.89-9.28-.66-3.33,1.19-6.28,4.09-9.47,5.75-12.3,7.04-22.8-4.54-28.72-14.19-2.42-3.89-3.7-8.37-5.77-12.87-2.96-6.75-7.69-14.62-4.42-21.97,1.81-4.57,6.19-7.85,8.36-12.47,3.24-5.49,4.21-14.34,11.39-15.91,4.02-.87,8.38-.72,12.71-2.13,2.81-.84,5.44-2.2,8.21-3.19,8.61-2.86,19.47-1.72,26.14,4.7l.13.12ZM49.97,33.84c-5.44.29-4.07,10.15-3.63,14,1.05,10.97,13.39,2.38,14.02-4.12.71-5.41-5.19-10.12-10.22-9.89h-.17ZM74.39,44.5c-9.25,1.98-12.9,10.32-8.15,18.67,2.95,5.59,6.08,12.93,12.75,13.5,6.97-.05,4.96-8.49,4.24-13.05-.47-3.31.43-6.71.84-9.99,1.03-6.86-3.02-10.54-9.47-9.17l-.21.04ZM61.41,75.13c-1.55.42-2.67,2.12-1.67,3.54,1,1.55,4.24,2.06,6.03,1.05,2.53-1.34,1.19-4.17-1.25-4.66-.95-.26-2.01-.25-2.91,0l-.19.06Z"/>
</svg>