<?xml version="1.0" encoding="utf-8"?>
<!-- Generator: Adobe Illustrator 28.0.0, SVG Export Plug-In . SVG Version: 6.00 Build 0)  -->
<svg version="1.1" id="svg" xmlns="http://www.w3.org/2000/svg" xmlns:xlink="http://www.w3.org/1999/xlink" x="0px" y="0px"
	 viewBox="0 0 496 484" style="enable-background:new 0 0 496 484;" xml:space="preserve">
<style type="text/css">
	.st0{fill-rule:evenodd;clip-rule:evenodd;}
</style>
<path class="st0" d="M184.6,56.6c-4.7,1.6-9,5.5-12.5,11.5c-2.4,4-2.7,5.8-3.2,17.5c-0.7,14.2-2.7,22.9-6.4,26.8
	c-1.2,1.3-5.3,3.3-9.1,4.5c-5.4,1.7-8.9,3.7-15.9,9.2c-11.6,9.2-26.8,17-34.6,17.7c-10.6,1-21.3-5-28.1-15.7
	c-2.3-3.6-2.8-5.6-2.8-10.6c0-3.4-0.7-8.1-1.5-10.6c-6.2-18.3-28-20.4-32.4-3.2c-1.6,6.1-1.3,10.3,1,17.8c1.6,5.3,3.1,7.8,7.2,12
	c5.1,5.2,8.7,7.1,24.8,12.9c11,4,20.5,13.6,24.5,24.7c2.6,7.1,6.2,10.9,10.6,10.9c1.9,0,7.4-1.4,12.3-3.1
	c27.3-9.4,29.9-10.2,37-10.3c6.2-0.1,7.9,0.3,14.5,3.6c8.9,4.4,19.1,12.4,20.3,15.9c2,5.7,0,9.8-9.4,18.9
	c-9.9,9.6-11.9,13.3-14.5,26.1c-1.5,7.6-1.5,8.5,0,14.2c3.8,13.7,9.7,19.6,19.4,19.6c4.9,0,8.8,1.6,15.3,6.3
	c6.7,4.9,26,10.1,33.9,9.2c6.5-0.8,9.9,0.5,9.9,3.5c0,2.9-3.1,4-8.9,3.3c-6.9-0.8-9.3,0.6-14.6,8.8c-2.4,3.8-5.7,7.4-7.4,8.3
	c-6.3,3.3-16.1,1-24.9-5.7c-7.4-5.7-15.3-7.7-31.1-7.8c-13.4-0.1-16.3,0.5-19.8,4.3c-2.8,3-9.3,17.7-9.3,21.1c0,3.6,4.2,8.1,8.7,9.5
	c2.1,0.6,7,1.6,10.8,2.2c19.4,3,23.5,8.3,16.4,21c-5.7,10-6.1,11-5.4,13.6c0.8,3.2,4,6.2,10.7,9.9c4.8,2.7,6.2,2.9,14.8,2.9
	c8.7,0,10.1-0.3,16.2-3.3c8.2-4,16.8-13,19.3-19.9c4.5-12.8,5.2-13.7,15-21.3c3.9-3,8.9-7.1,11.2-9.2c4.5-4.1,8-5.4,11.6-4.5
	c3.6,1,21.6,15.5,23.4,18.8c1,1.8,1.9,7.6,2.4,14.7c1.3,17.5,2.5,20.7,14.5,38.3c6.4,9.4,7.8,12.3,11.5,24
	c4.9,15.4,7.3,18.7,15.9,21.3c7.7,2.3,16.3,2,27.7-1c11.2-2.9,15-5.1,19.5-11.3c4-5.5,5.9-11.8,5.9-19.6c0-6.9,2.2-17.1,4.6-21.9
	c0.9-1.8,4.2-5.9,7.4-9.2c3.1-3.3,7.6-9,9.9-12.7c4.1-6.6,4.4-6.8,15.5-12.1c7.8-3.7,12.6-6.8,15.4-9.7c3.9-4.1,7.2-11,7.2-15.2
	c0-3.2-3.9-9.1-7.6-11.6c-14.2-9.7-15.9-21.7-6.5-44.1c8.2-19.4,7.9-24.4-2.4-31.9c-7.9-5.8-9-9.3-8.2-25.1
	c0.8-14.8-0.1-18.4-6.7-29.3c-2.4-4-5.7-9.6-7.3-12.6c-2.3-4.4-4.4-6.4-11.7-11.4c-10.4-7.1-22.8-19.3-27.7-27.2
	c-8.5-13.6-9.7-15.1-16.7-20c-3.9-2.8-10-7.5-13.5-10.5c-13.2-11.2-18.4-11.5-33.1-1.7c-10.1,6.7-24.6,13.4-31.3,14.3
	c-7.7,1.1-23.8-5.1-34-13c-3.5-2.7-8.2-5.3-11.4-6.2c-3-0.9-7-2.5-8.9-3.7c-4.3-2.6-7.7-9.9-9-19.1c-0.5-3.7-1.7-7.9-2.5-9.2
	C197.2,56.4,190.8,54.5,184.6,56.6 M331.8,125.7c8.8,4.4,15.3,12.5,24,30.2l7.7,15.6l7.9,4.1c8.9,4.6,12.2,7.9,13.2,12.9
	c0.9,4.6-2,10.2-6.6,12.8c-3.1,1.7-4.6,1.8-15,1.2c-6.3-0.4-15.8-0.8-21-0.8c-11.3-0.1-15.3,1.5-21.7,8.4c-2.3,2.5-6.6,7.1-9.5,10.3
	c-4.8,5.2-6.3,6.1-14.8,9.2c-5.2,1.9-11,3.5-12.8,3.5c-9.6,0-16.8-8.2-13.2-15c0.6-1.1,3.7-3.8,7.1-6c7.3-4.9,9.6-8.5,10.4-15.9
	c1-8.6,2.9-13.4,10.2-25.5l6.8-11.1l0-12c0-9.6,0.4-12.7,1.8-15.7C310.5,123.5,321.8,120.7,331.8,125.7 M228.5,164
	c9,4.3,13.5,10,13.5,17c0,7.2-8.8,26.7-15.1,33.6c-5.3,5.7-9.1,7.3-12.4,5.2c-3.7-2.4-4.7-7.5-3.5-18.3c0.7-6.7,0.7-11.4-0.1-17
	c-2.5-16.9-2.5-16.8,0.8-20.2C215.8,160.2,220.4,160.1,228.5,164 M346.7,222c1.2,1,4.1,5.4,6.4,9.7c2.3,4.3,5,9.4,6,11.4
	c1,1.9,3,8.9,4.5,15.5c1.7,7.6,4.8,17.1,8.5,26.1c6.6,15.8,8.2,21.8,7.3,26.6c-1.5,8.1-8,15.8-14.8,17.7c-6.6,1.8-10.7-0.4-15.5-8.6
	c-1.9-3.2-5.1-8.1-7.1-10.8c-6.4-8.7-8.2-13.3-8.7-21.6c-0.4-7.4-0.3-8,3.9-17c3.8-8.3,4.4-10.2,4.4-16.4c0-6-0.6-8.2-3.7-15.1
	c-4-8.8-4.6-13.6-2.2-17.2C337.5,219.5,343.5,219.4,346.7,222 M395.8,251.7c7.8,3.3,11.2,8.9,11.2,18.5c0,9.1-7.5,15.2-16,12.9
	c-8-2.2-12-8-12-17.7C379,253,385.7,247.5,395.8,251.7 M348.6,348.8c7.5,2.6,16.8,12.2,19,19.8c3.5,12,0.6,27.1-7.1,37.2
	c-5.4,7.1-13.4,8.3-24.8,3.7c-5.5-2.2-8.6-4.4-15.7-11.1c-12.5-11.9-16.4-20.8-12.9-30c2.1-5.5,9.7-12,21.3-18.2
	C335.2,346.6,340.9,346.2,348.6,348.8"/>
</svg>
