<?xml version="1.0" encoding="utf-8"?>
<!-- Generator: Adobe Illustrator 28.0.0, SVG Export Plug-In . SVG Version: 6.00 Build 0)  -->
<svg version="1.1" id="svg" xmlns="http://www.w3.org/2000/svg" xmlns:xlink="http://www.w3.org/1999/xlink" x="0px" y="0px"
	 viewBox="0 0 729 282" style="enable-background:new 0 0 729 282;" xml:space="preserve">
<style type="text/css">
	.st0{fill-rule:evenodd;clip-rule:evenodd;}
</style>
<path class="st0" d="M92,82.3c0,47.3-0.1,49.3-2,53.4c-2.3,4.8-1.6,8.3,2.2,10.8c2.7,1.7,285,105.6,289,106.3
	c1.9,0.3,38.8-12.1,119.5-40.2c64.2-22.4,118-41.3,119.4-42.1c4.4-2.3,5.1-7.1,1.9-13.2c-1.9-3.6-2-5.6-2-52.5V56.1h-2.7
	c-1.5,0-4.2,0.5-6,1.2l-3.3,1.2v49.8c0,43.6-0.2,49.8-1.5,49.8c-1.3,0-1.5-6-1.5-48v-48h-4h-4l0,47.8c0,26.3-0.3,48.7-0.6,49.9
	c-0.3,1.2-1.7,2.6-3,3.2c-5.7,2.6-5.4,5.2-5.4-46.9v-48l-4.2,0c-2.3,0-5.5,0.7-7.1,1.5c-1.6,0.8-3.7,1.5-4.8,1.5
	c-1.8,0-1.9,1.8-2.1,49.8l-0.2,49.8l-0.3-47.8L569,75.1h-4.4c-3,0-4.6,0.5-5,1.5c-0.4,1-1.9,1.5-4.6,1.5h-4V128V178l-5.2,1.7
	c-2.9,1-5.8,1.9-6.5,2.2c-1,0.4-1.3-9.9-1.5-47.9l-0.3-48.4l-3.8-0.3c-2.7-0.2-3.9,0.1-4.4,1.2c-0.4,1-1.9,1.6-4.2,1.6
	c-2,0-4.5,0.7-5.6,1.5c-1.1,0.8-2.8,1.5-3.8,1.5c-1.7,0-1.8,2.4-1.8,49.6v49.6l-3.5,1.4c-1.9,0.8-3.7,1.4-4,1.4
	c-0.3,0-0.6-21.7-0.8-48.2l-0.3-48.2h-4h-4l-0.3,49.7c-0.3,48.7-0.3,49.7-2.3,50.8c-1.1,0.6-2.5,0.8-3,0.5c-0.6-0.4-1-18.2-1-48
	v-47.4l-3.8,0.1c-2.1,0.1-4.9,0.4-6.2,0.8l-2.5,0.7l-0.5,49.9l-0.5,49.9l-5.2,1.8c-2.8,1-5.4,1.5-5.7,1.2
	c-0.3-0.3-0.6-22.1-0.6-48.4v-47.8h-4h-4V160v49.9l-2.8,1.1c-5.9,2.4-22.5,8.1-23.4,8.1c-0.5,0-1-21.7-1.1-48.2l-0.3-48.2l-3.8-0.3
	L423,122l0,48.3c0,26.6-0.3,49.3-0.6,50.6c-0.7,2.6-2.9,3-3.8,0.7c-0.3-0.9-0.6-22.5-0.6-48v-46.4h-4h-4v50v50l-2.6,0.7
	c-1.7,0.4-2.9,0.2-3.5-0.7c-0.5-0.8-0.9-22.4-0.9-48.1l0-46.8h-4h-4l-0.3,50.2l-0.3,50.2l-6,2c-5.4,1.8-6.3,1.8-10,0.6l-4-1.4
	l-0.5-50l-0.5-50h-4h-4l-0.3,47.8c-0.2,45.2-0.4,47.8-2.1,47.8c-1,0-2.6-0.6-3.5-1.2c-1.5-1.1-1.7-5.6-1.9-50.8l-0.3-49.5h-4h-4
	l-0.3,47.8c-0.3,51.8,0.1,49-5.7,46.8l-2.6-1v-49.5v-49.5l-3.4-1.6c-1.9-0.9-4.7-1.5-6.2-1.3l-2.8,0.3l-0.2,47
	c-0.1,25.9-0.5,47.5-0.7,48.2c-0.3,0.9-1.6,0.8-5.2-0.4c-2.6-0.9-5.4-2-6-2.6c-1-0.8-1.2-12-1.2-50.4v-49.4h-2.8
	c-1.6,0-3.9-0.9-5.2-2c-1.3-1.1-3.5-2.3-4.9-2.6c-1.4-0.3-3.3-1-4.3-1.5c-1-0.5-3.3-0.9-5.2-0.9H289l0,46.8
	c0,25.9-0.4,47.4-0.9,48.2c-0.8,1.2-1.4,1.2-4.7,0l-3.8-1.5l-0.5-50l-0.5-50l-3-0.3c-1.6-0.2-3.4-0.7-4-1.2
	c-0.5-0.5-2.7-0.9-4.8-0.9H263v47.4c0,26.8-0.4,47.7-0.9,48c-0.5,0.3-3.8-0.5-7.2-1.8l-6.4-2.4l-0.3-50.1L248,87.1h-4h-4v48
	c0,54.1,0.8,49.5-8,46.2l-4.5-1.7l-0.5-50l-0.5-50H223h-3.5l-0.2,47c-0.1,25.9-0.5,47.5-0.7,48.2c-0.4,0.9-1.3,0.9-4.3-0.1l-3.8-1.3
	l-0.5-49.9l-0.5-49.9l-4.2-0.3L201,73v48.1c0,31.6-0.3,48.1-1,48.1c-0.8,0-47.2-16.8-66.2-24L128,143V93V43.1h-4h-4v48
	c0,41.2-0.2,48-1.4,48c-2.7,0-16-5.3-17.3-6.8c-1-1.2-1.2-12.8-1.2-50.4V33.1h-4h-4V82.3"/>
</svg>
