<?xml version="1.0" encoding="utf-8"?>
<!-- Generator: Adobe Illustrator 28.0.0, SVG Export Plug-In . SVG Version: 6.00 Build 0)  -->
<svg version="1.1" id="svg" xmlns="http://www.w3.org/2000/svg" xmlns:xlink="http://www.w3.org/1999/xlink" x="0px" y="0px"
	 viewBox="0 0 572 567" style="enable-background:new 0 0 572 567;" xml:space="preserve">
<style type="text/css">
	.st0{fill-rule:evenodd;clip-rule:evenodd;}
</style>
<path class="st0" d="M48,124.6c0,3.1,0.7,9,1.6,13.1c0.9,4.2,1.3,7.8,0.9,8.2c-0.3,0.3-2.3-0.4-4.3-1.7c-5.3-3.3-19.2-9.9-22.6-10.8
	l-2.9-0.7l2.3,4.2c6.6,11.8,19.3,23.3,33.7,30.3c7.9,3.9,10.7,5.8,12.4,8.5c1.2,1.9,2,3.6,1.8,3.8c-0.2,0.2-3.4,1.7-7,3.3
	c-3.7,1.6-9.5,4.9-13,7.3c-6.7,4.6-17.9,15-17.9,16.8c0,1.1,6.9-1.3,14.3-5c6.2-3.1,15.6-10.1,20.7-15.3c2.5-2.5,4.9-4.6,5.5-4.6
	c0.6,0,2.8,1.4,5,3c2.2,1.6,4.3,3,4.8,3c0.5,0,0.8-2.2,0.8-4.8v-4.8l5.5-1.2c7.8-1.8,18.1-7.2,24.5-12.9c3-2.7,5.3-5.2,5-5.5
	c-1-1-13.8,2.2-20,5c-3.3,1.5-8.1,4.2-10.7,6c-8.1,5.8-8.4,4.1-0.8-4.5c7.1-8,10.1-13.2,14.1-24.8c2.8-8,3.2-10.5,2.7-15.5
	c-0.3-3.3-0.9-5.9-1.4-5.9s-4.2,3.3-8.2,7.3c-8,8-13.3,16.6-16.7,27.1c-1.4,4.3-2.5,6.5-3.1,5.9c-0.5-0.5-1.4-5.6-1.9-11.3
	c-0.5-5.7-1.4-11.5-1.9-12.9c-0.8-2.3-0.9-2.3-1,1c-0.2,6.2-1.5,6.6-4.4,1.6c-2.9-5-12.8-16.1-15.8-17.7
	C48.2,119.1,48,119.5,48,124.6 M122.8,168.9c-13.1,13.3-13.8,14.1-18.7,24.6c-5.4,11.6-6,13.6-3.6,13.6c0.9,0,1.5,0.9,1.5,2.1
	c0,2,0.3,1.9,4.2-1c2.3-1.7,5.1-3.1,6.1-3.1c4.5,0,16.8-7.2,22.6-13.1c4.8-4.9,12.1-15.9,12.1-18.3c0-1.1-4.6-0.6-12.9,1.5
	c-4.5,1.2-8.5,1.9-8.7,1.7s0.9-2.2,2.4-4.3c4.1-5.7,10.5-17.4,9.4-17.4C136.8,155.1,130.3,161.3,122.8,168.9 M63,202.3
	c-13.1,1.2-14.7,3.3-2,2.5c9-0.6,9.8-0.5,14.9,2.2l5.4,2.8l-7.4,3.7c-8.4,4.3-18,11-22.3,15.5c-2.8,2.9-2.8,3.1-0.8,3.1
	c1.2,0,5.2-1.1,8.9-2.4c6-2.2,7.3-2.3,11.8-1.4c2.8,0.6,7.1,2.5,9.6,4.3c11.9,8.6,26,13.5,40.4,13.9c7.4,0.2,8.1,0.4,10.2,3.2
	c1.3,1.6,2.3,3.2,2.3,3.7c0,1.6-8.8,0.6-15.8-1.8c-4-1.4-10.6-2.8-14.5-3.1l-7.1-0.6l3.8,3.9c3.9,4.1,4.5,5.3,2.7,5.3
	c-2,0-15.9,6.2-15.9,7.1c0,1.2,15.3,1.1,22.2-0.1c5.1-0.9,6.2-0.8,11.8,1.5c6.6,2.7,18.9,5.5,23.8,5.5c2.2,0,3.5,0.8,5.2,3.2
	c3.8,5.6,9.2,10.8,10,9.6c0.4-0.6,1.8,1.3,3.2,4.3c1.4,2.9,3.7,6.7,5.2,8.4l2.6,3l-0.6-4.5c-1.1-7.6-6.3-21.9-12-33
	c-3-5.8-5.9-12.8-6.5-15.5c-0.6-2.8-2-8.1-3.3-11.9l-2.2-6.9l3-2.1c1.6-1.2,6.4-5.5,10.5-9.6l7.5-7.5l-3.6-0.3
	c-9.4-0.8-24.7,4.6-33.4,11.9c-2.6,2.1-4.9,3.9-5.1,3.9c-0.2,0-2.1-2.5-4.1-5.6c-2-3.1-3.9-5.1-4.1-4.5c-0.2,0.6,0.6,4.1,1.9,7.8
	c1.7,5.2,2,7.1,1.1,8.5c-1.7,2.7-1.4,3.8,1.1,3.6c1.8-0.2,2.8,0.9,5.2,5.3l3,5.5l-3.9-3.5c-2.2-1.9-6.3-5-9.2-6.9
	c-3.3-2.1-5.1-3.9-4.8-4.7c0.3-0.9-0.9-1.7-3.7-2.4c-2.3-0.6-7.2-2-10.8-3c-3.6-1.1-8.7-2.2-11.3-2.6c-5.1-0.7-5.6-2.1-1.7-4
	c1.3-0.6,2.8-1.9,3.2-2.8c0.8-1.4,2-1.5,8-0.9c7.5,0.7,8.5-0.2,2.7-2.6c-2.1-0.9-3-1.8-2.7-3c0.4-1.4-0.4-1.7-4.2-1.7
	c-5.4,0-12-2.4-8.6-3.1c1.1-0.2,2.4-0.8,2.9-1.3C86.6,200.9,76.2,201,63,202.3 M139,236.9c0,3.1-0.6,7-1.4,8.7l-1.3,3l-1-2.5
	c-0.6-1.4-2-4.7-3.1-7.3c-1.2-2.7-2.1-5.2-2.1-5.6c0-0.9,7.1-2.9,8.2-2.3C138.7,231.1,139,233.8,139,236.9 M141.5,255.6
	c1,4.1,1.6,7.8,1.3,8.1c-0.7,0.7-10.7-5.6-10.7-6.8c0-1.6,3-2,4.6-0.7c1.4,1.2,1.5,0.9,0.9-2.3c-0.7-3.5-0.1-5.8,1.4-5.8
	C139.3,248.1,140.4,251.5,141.5,255.6 M199.2,264.3c-9.2,12.1-14.1,27.2-14.2,42.9l0,8.5l-4.6-4.6l-4.6-4.6l2.3-5.9
	c1.9-4.9,2.3-7.7,2.3-16.9c0-7.6-0.5-12.1-1.5-14.5l-1.5-3.5l-1.9,5c-1.6,4.1-1.9,7.5-1.9,19.2c0,7.8-0.3,14.2-0.8,14.2
	c-0.5,0-5-2-10.1-4.5c-5.7-2.8-12.5-5.1-17.6-6.2l-8.4-1.7l5.9-5.4c7.1-6.5,5-6.1-5.4,1.1c-10.3,7.1-17.7,15.3-8.9,9.9l3.4-2.1
	l4.8,3.4c2.7,1.9,5.1,3.7,5.3,3.9c0.3,0.3-0.8,1-2.4,1.6l-2.9,1.1l3,1.3c2.1,0.9,2.6,1.5,1.5,1.8c-14.1,5.1-15.6,5.9-14.6,7.4
	c0.6,1,9,3.3,17.5,4.9l4.4,0.8l-9.4,4.8c-9.7,5-16.9,10.1-15.7,11.3c1.2,1.2,15,2.3,21.8,1.8c6-0.5,6.4-0.4,4.6,1.1
	c-2.9,2.4-1.5,2.8,5.6,1.6c10.2-1.7,10.8-1.5,6.1,2l-4.2,3.1l7.3,3.5c4,1.9,12,5.3,17.8,7.3c9.7,3.5,10.2,3.8,6.5,4l-4,0.2l4,0.8
	c6.1,1.2,18.6,2,18.1,1.2c-0.2-0.4,2.7-0.5,6.5-0.4c7.6,0.4,9-0.8,3.7-3.2c-19.1-8.6-30.4-12.1-43.5-13.3c-4-0.4-7.2-1-7.2-1.5
	c0-0.5,2.4-2,5.2-3.5c2.9-1.4,9-5.1,13.6-8.1c7.9-5.2,8.4-5.4,10.2-3.8c1.8,1.6,2,1.5,3.5-2.1c3.2-7.6,4.7-17.4,4.1-27
	c-0.4-6.2-0.1-11.4,0.9-16c1.6-7.5,2-23.1,0.6-25.2C203.5,259.2,202.2,260.2,199.2,264.3 M232.6,299.2c-10.6,7.1-18.6,16.2-24,27.3
	c-2.5,5-4.8,10.2-5.1,11.5l-0.7,2.3l4.9-2.5c2.7-1.4,7.6-4.5,10.8-7s6.1-4.4,6.2-4.3c0.1,0.1-0.2,2.9-0.7,6.2c-0.5,3.3-1,8.4-1,11.4
	c0,5.2-0.2,5.6-3.7,8l-3.7,2.5l3.5,0.6c4.9,0.8,5.5,1.4,6.2,6.2c0.3,2.4,0.9,5.4,1.3,6.8l0.7,2.5l-2.6-2.4c-3.9-3.5-4.4-1.8-0.8,2.7
	l3.1,3.9l-10.3,1.1c-5.6,0.6-13.4,2.2-17.2,3.4c-7.9,2.6-22.6,12-27.5,17.6l-3.3,3.8l8.8,0.3c5.5,0.2,11.1-0.3,14.9-1.3
	c9.3-2.3,21.3-8.7,29.4-15.5c4-3.3,7.6-6.1,8.1-6.1c0.5,0,1.5,0.7,2.2,1.5c2.3,2.8,2.2,0.7-0.1-2.5l-2.3-3.1l2.2-4.5
	c1.2-2.5,2.2-5.1,2.2-5.9c0-2.2,12.7-10.7,19.7-13.3c7.8-2.8,13.4-5.7,19.3-9.7l4.5-3.1l-5-0.5c-3.3-0.3-4.9-0.9-4.8-1.8
	c0.3-1.6-0.2-1.6-3.5,0.1c-1.5,0.8-7.6,2.3-13.6,3.5c-12.6,2.5-12.6,2.5-12.6-5.9c0-3-0.8-8.7-1.7-12.7l-1.7-7.2l3.7-7.8
	c3.7-7.8,4.5-11.2,2.8-11.2C240.6,294.1,236.8,296.4,232.6,299.2 M191.4,319.8c0.9,2.6,1.4,4.8,1.2,5.1c-0.2,0.2-1.6-1.2-3.1-3.2
	c-2.2-2.9-2.5-3.8-1.5-5.1c0.7-0.8,1.4-1.5,1.5-1.5C189.7,315.1,190.5,317.2,191.4,319.8 M184.5,326.8c2.5,1-0.2,2.3-4.5,2.3
	c-3.3,0-3.4-0.1-1.6-1.5C180.6,326,182,325.8,184.5,326.8 M292.5,375.2c-14.7,3.4-42.5,15.7-42.5,18.9c0,1,11.5-1.2,20.5-4
	c8-2.5,28.7-12.3,30.5-14.5c1-1.3,0.8-1.5-1.6-1.4C297.8,374.3,294.7,374.7,292.5,375.2 M311.3,386.9c-2.1,14.5-0.1,33.8,4.6,46.3
	c2.9,7.6,2.8,7.9-2.5,7.9c-2.5,0-4.3-0.4-4-0.9c1.3-2.1-7.1-15.7-14-22.7c-6.7-6.9-15.5-12.7-15.5-10.3c0,0.6,1.4,3.8,3.2,7.1
	c3.3,6.1,9.3,13,16.3,18.7c3.3,2.6,3.7,3.4,2.5,4.2c-0.8,0.5-3.3,1-5.5,1c-9.4,0.1-21.1,5.1-29.7,12.8c-6.8,6.2-6.5,7.2,2.6,7.2
	c8.5,0,16.5-1.5,21.5-4c4-2,13-3.6,13-2.3c0,0.5-1.6,2.4-3.6,4.3c-4.2,4-9.4,11.7-9.4,13.7c0,1,1.6,0.5,5.6-1.6
	c4.4-2.4,5.2-2.6,3.8-1c-1.8,2-1.8,2,0.9,1c1.5-0.6,3.7-1.5,4.8-2.1c1.8-1,2-0.9,1.3,1.3c-1.2,4-1.1,4.3,2,4
	c8.2-0.9,20.7-9.7,24.6-17.4c1.1-2.1,3.2-4.3,4.7-4.9c2.7-1.1,2.7-1.1-2-2.5c-2.6-0.8-4.8-1.8-4.8-2.3c0-0.9,7.9-7,9-7
	c0.3,0,2,2.8,3.7,6.2c2.1,4.2,3.2,5.5,3.2,4.1c0.1-3.7,1.5-3.4,7.7,1.5c5.4,4.3,14.8,9,24.6,12.1c2.1,0.7,3.8,1.6,3.8,2.1
	c0,0.5-4.1,3-9,5.5c-6.2,3.2-10.9,6.6-15.1,10.8c-6.7,6.7-11.5,13.3-10.5,14.3c0.4,0.4,3.2-0.1,6.2-1.1c4.2-1.3,5.9-1.5,6.9-0.6
	c1.9,1.5,7.6-1.4,14.2-7.4c2.8-2.5,8.2-6.2,11.9-8.1c3.8-1.9,8.7-5,10.9-6.9l4-3.4l0-10.4c-0.1-17.5-5.6-30.4-18.1-41.8
	c-8.3-7.6-8.7-7.3-8.1,6.2c0.5,12.2,2.3,18.5,7.7,27c3.2,5.1,2.5,5.9-2.1,2.6c-6.3-4.5-20-9.9-31.1-12.3c-2.2-0.5-2.7-1.3-3.1-4.3
	c-0.4-3,0.4-5.4,3.4-11.5c4.9-9.9,8.4-23.7,6-23.7c-0.5,0-3.5,2-6.7,4.5c-6.4,5-7.2,5.3-8.1,2.8c-1.5-4.6-7.8-17.2-8.5-17.2
	c-1.2,0-1,19.2,0.2,26.5c0.9,5.4,0.8,6.8-1,11.3c-1.1,2.8-2.5,8-3,11.4c-0.5,3.4-1.6,6.5-2.2,7c-1.9,1.2-7-2.2-6.2-4.1
	c0.4-0.8,1.8-4.7,3.2-8.5c3.4-9.4,4.2-26.9,1.8-37.7c-2.3-10.2-3.1-11.3-5.1-6.3c-3.2,8-3.2,8.1-3.9,6.5c-0.3-0.8-1.5-4.1-2.7-7.2
	c-1.2-3.2-2.5-5.8-3-5.8S311.8,383.7,311.3,386.9 M237.3,401.1c-11.9,4.2-33.2,18-29.1,18.8c4.9,1,28.6-11.4,34.8-18.1
	C245.8,398.6,244.7,398.5,237.3,401.1 M466.4,430.2c-3.3,2.3-7.6,5.7-9.6,7.7c-2.1,2-3.9,3.4-4.1,3.1c-0.2-0.2-1.9-2.8-3.6-5.7
	c-1.8-2.9-3.7-5.1-4.4-4.9c-2.6,0.9-4.6,11-4.4,21.7c0.2,7.8-0.3,12.3-1.7,17.6l-1.9,7.1l-6.7,2.2c-3.7,1.2-9.3,3.9-12.6,6
	c-6.8,4.4-15.4,13.3-13.5,13.9c2.4,0.8,15.4-4.1,21.1-8c7.1-4.7,14.4-12.4,13.6-14.4c-0.4-0.9,0.6-2.2,2.7-3.4c1.8-1.1,3.5-2,3.7-2
	c0.3,0,1.8,2.1,3.4,4.7c1.9,3.2,3.1,4.3,3.4,3.2c2.3-6.9,1.8-6.8,7.3-1.4l5,4.9l-10.3,0.6c-11.3,0.6-19.6,2.5-18.1,4
	c0.5,0.5,3.6,1.4,6.9,2c10.4,1.9,10.6,2.2,4.9,5.2c-2.8,1.4-6.1,3.5-7.5,4.6l-2.5,2l3.8,0c4.3,0,4.4,0.3,1.9,3.9
	c-5.1,7.3-11.5,25.1-9.7,26.9c1.4,1.4,13.9-6.3,19.5-12c6.2-6.3,10.3-13,13.5-22.3c2-5.9,2.2-6,6-6.3c3-0.2,6,0.8,12.7,4.1l8.7,4.4
	l-6.7,2.7c-9.7,3.9-23.9,13.4-22.2,15c0.2,0.2,2.5,0,5.1-0.4c2.8-0.4,4.8-0.3,4.8,0.2c0,0.5-1.6,3.6-3.5,6.9
	c-4.3,7.3-6.7,12.9-5.9,13.7c0.9,0.9,11.1-4.8,17.9-10c6-4.6,12.4-12.2,16.7-19.8c3.7-6.4,6.2-7.6,16.8-7.6l9.4,0l-0.6-5.5
	c-0.7-6.3-4.2-14.5-8.4-19.9l-2.9-3.7l0.5-13.5c0.5-13.5,0.5-13.5-1.5-11.7c-1.1,1-3.5,4.5-5.2,7.8c-1.8,3.3-4,6.7-5,7.7
	c-1.3,1.3-1.9,3.6-2.2,8.9c-0.6,11.5-2.1,11.2-7.6-1.8c-1.9-4.6-4.2-10.9-5-14.1c-0.8-3.2-1.9-5.8-2.3-5.8s-1.6,2.4-2.6,5.2
	c-1.3,3.8-1.8,8.2-1.8,16l0,10.7l-3.2-3.1c-2.1-2-4-5.5-5.4-9.7c-1.2-3.6-3.2-8.7-4.5-11.3c-3-5.9-3-7.7,0-13.6
	c2.2-4.3,5.6-14.4,5.6-16.4C474,425.4,472.3,426.1,466.4,430.2 M428.4,435.7c-2.7,6.1-6.8,21-7.8,27.9c-0.5,3.6-0.4,3.8,0.9,2.1
	c3.6-4.7,11.8-33.6,10.1-35.3C431.3,430.1,429.9,432.4,428.4,435.7 M434.6,436.9c-1.6,5.1-3.6,17.1-4.1,24.4c-0.7,9.7,0.5,9,2.9-1.7
	C435.8,448.3,436.9,429.5,434.6,436.9 M321,440.1c0,0.5-0.5,1-1,1s-1-0.5-1-1s0.5-1,1-1S321,439.6,321,440.1 M317.5,454.7
	c-4.5,4-11.5,8.8-12,8.2c-0.2-0.2,2.1-2.9,5.2-6.1c4-4.1,6.3-5.7,8.2-5.7C321.5,451.1,321.4,451.2,317.5,454.7 M347.6,455.1
	c-9.1,3.8-16.5,8.8-23.4,15.9c-5.8,5.9-13.5,17.7-12.6,19.2c0.6,1,9.3-2.3,15.2-5.8c2.4-1.4,4.6-2.3,4.9-2c0.3,0.3,0,2.6-0.6,5
	c-1.3,5.1-1.5,18.6-0.4,18.6c1.2,0,11.7-9.2,15-13c7.3-8.7,11-18.7,11.9-32C358.4,450.5,358.5,450.6,347.6,455.1 M464.3,461.2
	c1,2.8,1.6,5.3,1.4,5.5c-0.5,0.6-7.8-5.6-7.8-6.6c0-1,2.9-4,3.8-4C462.2,456.1,463.3,458.4,464.3,461.2 M460.6,466.3
	c0.5,0.8,0.2,1-1,0.5c-1-0.4-2.2-0.7-2.7-0.7c-0.5,0-0.9-0.7-0.9-1.5c0-1.2,0.4-1.3,1.9-0.5C459,464.7,460.2,465.7,460.6,466.3
	 M398.5,465.1c3.3,0.8,2.7,1.2-4.4,3.1c-5,1.3-5.7,1-4.2-1.9C391.1,464,393.1,463.8,398.5,465.1 M491.4,472.6c0.3,0.9,0,1.5-0.9,1.5
	c-0.8,0-1.5-0.7-1.5-1.5s0.4-1.5,0.9-1.5C490.4,471.1,491,471.8,491.4,472.6 M496.9,485.6c-0.3,0.3-2.6,0.2-5.2-0.1
	c-5-0.7-5.4-1.4-3.6-6l1-2.8l4.2,4.2C495.5,483.2,497.2,485.3,496.9,485.6 M513.9,505.4c-2.5,2.3-8.6,7.3-13.4,11.2
	s-12.1,11-16.1,15.8c-10.8,12.9-10.1,13.8,3.6,4.6c5-3.4,9.3-5.9,9.5-5.7c0.2,0.2-0.1,2.1-0.6,4.2c-0.6,2.1-0.7,4.1-0.4,4.4
	c0.4,0.4,3.3-2.2,6.6-5.8c7.4-8,18.8-29.6,16.6-31.7C518.7,501.5,517.6,502,513.9,505.4 M526,511.1c-9.1,9.5-16.6,25.9-15.8,34.8
	l0.3,3.8l6.5-6.5c7-7.1,11.9-15.3,14.3-24c2.3-8.3,2.9-14,1.6-14C532.3,505.1,529.2,507.8,526,511.1"/>
</svg>
