<svg id="svg" version="1.1" width="800" height="800" xmlns="http://www.w3.org/2000/svg"><path d="M126.000 150.507 C 126.000 153.575,126.703 159.487,127.562 163.647 C 128.421 167.806,128.839 171.494,128.491 171.842 C 128.143 172.190,126.203 171.447,124.179 170.191 C 118.840 166.878,104.978 160.271,101.605 159.431 L 98.709 158.710 101.057 162.888 C 107.706 174.718,120.404 186.140,134.731 193.178 C 142.592 197.039,145.457 199.003,147.095 201.654 C 148.268 203.552,149.064 205.258,148.864 205.444 C 148.664 205.631,145.513 207.131,141.863 208.778 C 138.212 210.425,132.362 213.710,128.863 216.078 C 122.120 220.640,111.000 231.116,111.000 232.905 C 111.000 234.028,117.920 231.592,125.299 227.873 C 131.525 224.736,140.901 217.800,145.958 212.592 C 148.410 210.066,150.885 208.013,151.458 208.028 C 152.031 208.043,154.268 209.393,156.428 211.028 C 158.589 212.663,160.726 214.000,161.178 214.000 C 161.630 214.000,162.000 211.822,162.000 209.159 L 162.000 204.318 167.516 203.084 C 175.356 201.329,185.591 195.927,192.000 190.161 C 195.025 187.440,197.257 184.960,196.960 184.650 C 195.996 183.645,183.125 186.832,176.940 189.607 C 173.625 191.095,168.796 193.817,166.210 195.656 C 158.067 201.445,157.777 199.744,165.442 191.154 C 172.579 183.155,175.545 177.934,179.517 166.379 C 182.267 158.378,182.709 155.884,182.259 150.920 C 181.964 147.664,181.313 145.000,180.813 145.000 C 180.313 145.000,176.628 148.276,172.624 152.279 C 164.603 160.301,159.302 168.907,155.961 179.336 C 154.591 183.612,153.419 185.819,152.829 185.229 C 152.311 184.711,151.439 179.610,150.892 173.894 C 150.345 168.177,149.506 162.375,149.028 161.000 C 148.215 158.665,148.152 158.731,148.064 162.000 C 147.898 168.156,146.565 168.639,143.618 163.611 C 140.685 158.606,130.772 147.483,127.851 145.920 C 126.152 145.011,126.000 145.389,126.000 150.507 M200.795 194.750 C 187.671 208.005,186.998 208.892,182.091 219.389 C 176.658 231.010,176.133 233.000,178.500 233.000 C 179.354 233.000,180.000 233.899,180.000 235.087 C 180.000 237.043,180.262 236.981,184.197 234.087 C 186.505 232.389,189.271 231.000,190.342 231.000 C 194.792 231.000,207.145 223.840,212.935 217.904 C 217.747 212.971,225.000 201.974,225.000 199.610 C 225.000 198.467,220.395 198.996,212.114 201.090 C 207.568 202.240,203.663 202.996,203.437 202.770 C 203.211 202.544,204.304 200.591,205.866 198.430 C 209.972 192.749,216.325 181.000,215.290 181.000 C 214.805 181.000,208.282 187.188,200.795 194.750 M141.015 228.171 C 127.960 229.408,126.303 231.441,139.000 230.644 C 148.046 230.076,148.757 230.182,153.885 232.859 L 159.269 235.670 151.904 239.412 C 143.487 243.688,133.858 250.363,129.563 254.898 C 126.796 257.821,126.750 258.000,128.767 258.000 C 129.945 258.000,133.943 256.899,137.651 255.553 C 143.615 253.388,144.977 253.229,149.447 254.174 C 152.226 254.761,156.525 256.708,159.000 258.501 C 170.909 267.124,184.974 271.973,199.420 272.435 C 206.824 272.673,207.492 272.878,209.665 275.595 C 210.944 277.193,211.992 278.837,211.995 279.250 C 212.006 280.851,203.152 279.868,196.146 277.490 C 192.102 276.118,185.577 274.713,181.646 274.370 L 174.500 273.745 178.250 277.664 C 182.125 281.715,182.771 283.000,180.930 283.000 C 178.900 283.000,165.000 289.189,165.000 290.093 C 165.000 291.330,180.332 291.240,187.244 289.963 C 192.311 289.026,193.460 289.171,199.076 291.453 C 205.694 294.142,217.964 297.000,222.890 297.000 C 225.122 297.000,226.419 297.811,228.089 300.250 C 231.923 305.851,237.336 311.074,238.072 309.883 C 238.454 309.266,239.867 311.140,241.285 314.141 C 242.677 317.088,245.002 320.850,246.451 322.500 L 249.087 325.500 248.452 321.000 C 247.386 313.445,242.166 299.082,236.462 288.012 C 233.483 282.230,230.578 275.250,230.007 272.500 C 229.435 269.750,227.970 264.393,226.751 260.595 L 224.534 253.691 227.517 251.599 C 229.158 250.448,233.875 246.131,238.000 242.005 L 245.500 234.503 241.925 234.202 C 232.543 233.410,217.274 238.851,208.478 246.120 C 205.895 248.254,203.611 250.000,203.401 250.000 C 203.192 250.000,201.345 247.476,199.296 244.391 C 197.248 241.306,195.407 239.280,195.204 239.889 C 195.001 240.497,195.834 243.996,197.054 247.663 C 198.795 252.893,199.028 254.725,198.137 256.153 C 196.423 258.896,196.758 260.002,199.220 259.738 C 200.983 259.549,202.048 260.631,204.399 265.000 L 207.358 270.500 203.429 266.999 C 201.268 265.073,197.113 261.973,194.196 260.110 C 190.944 258.033,189.090 256.207,189.404 255.389 C 189.748 254.492,188.537 253.699,185.708 252.968 C 183.394 252.370,178.556 251.012,174.958 249.950 C 171.360 248.888,166.282 247.726,163.672 247.369 C 158.616 246.676,158.050 245.308,161.998 243.323 C 163.285 242.676,164.748 241.415,165.248 240.521 C 166.016 239.149,167.263 239.003,173.227 239.591 C 180.704 240.328,181.707 239.364,175.945 236.977 C 173.839 236.105,172.986 235.160,173.283 234.027 C 173.643 232.649,172.920 232.360,169.109 232.361 C 163.720 232.362,157.145 229.983,160.500 229.246 C 161.600 229.004,162.928 228.400,163.450 227.903 C 164.610 226.801,154.159 226.925,141.015 228.171 M216.955 262.809 C 216.930 265.939,216.310 269.850,215.578 271.500 L 214.245 274.500 213.219 272.000 C 212.654 270.625,211.249 267.325,210.096 264.667 C 208.943 262.009,208.000 259.501,208.000 259.093 C 208.000 258.231,215.141 256.200,216.250 256.748 C 216.662 256.951,216.980 259.679,216.955 262.809 M219.467 281.499 C 220.494 285.624,221.060 289.273,220.725 289.608 C 219.983 290.351,210.000 284.014,210.000 282.800 C 210.000 281.227,213.000 280.755,214.594 282.078 C 215.985 283.232,216.085 282.970,215.482 279.754 C 214.820 276.228,215.353 274.000,216.859 274.000 C 217.266 274.000,218.440 277.375,219.467 281.499 M277.189 290.134 C 268.025 302.273,263.049 317.319,263.017 332.987 L 263.000 341.474 258.383 336.857 L 253.766 332.240 256.090 326.370 C 258.032 321.465,258.411 318.691,258.394 309.500 C 258.381 301.941,257.902 297.406,256.865 295.002 L 255.355 291.504 253.427 296.502 C 251.837 300.627,251.509 303.990,251.550 315.750 C 251.578 323.587,251.220 330.000,250.755 330.000 C 250.289 330.000,245.751 327.977,240.669 325.505 C 234.959 322.728,228.219 320.367,223.023 319.325 L 214.617 317.638 220.558 312.197 C 227.675 305.680,225.606 306.088,215.191 313.254 C 204.921 320.321,197.453 328.591,206.254 323.152 L 209.613 321.076 214.450 324.515 C 217.111 326.406,219.510 328.177,219.782 328.449 C 220.055 328.721,218.977 329.462,217.389 330.095 L 214.500 331.245 217.500 332.542 C 219.635 333.464,220.067 333.996,219.000 334.385 C 204.949 339.505,203.432 340.271,204.360 341.774 C 204.970 342.760,213.389 345.123,221.881 346.691 L 226.261 347.500 216.881 352.275 C 207.132 357.237,200.014 362.347,201.199 363.533 C 202.383 364.717,216.208 365.873,223.000 365.356 C 229.006 364.899,229.353 364.980,227.573 366.420 C 224.666 368.772,226.092 369.191,233.125 368.049 C 243.349 366.390,243.948 366.593,239.181 370.098 L 234.967 373.197 242.234 376.739 C 246.230 378.687,254.225 381.995,260.000 384.089 C 269.670 387.596,270.184 387.909,266.500 388.058 L 262.500 388.219 266.500 388.979 C 272.606 390.138,285.104 390.977,284.616 390.194 C 284.379 389.812,287.293 389.649,291.092 389.832 C 298.705 390.198,300.048 389.020,294.750 386.625 C 275.673 378.000,264.397 374.564,251.250 373.371 C 247.262 373.009,244.000 372.335,244.000 371.873 C 244.000 371.411,246.363 369.851,249.250 368.406 C 252.137 366.960,258.239 363.307,262.808 360.287 C 270.729 355.052,271.204 354.875,273.002 356.501 C 274.806 358.135,274.956 358.043,276.525 354.354 C 279.737 346.797,281.231 336.975,280.633 327.343 C 280.249 321.138,280.533 315.978,281.516 311.343 C 283.108 303.825,283.471 288.292,282.104 286.134 C 281.456 285.112,280.223 286.115,277.189 290.134 M310.641 325.034 C 300.055 332.114,292.066 341.200,286.629 352.341 C 284.171 357.378,281.860 362.540,281.493 363.811 L 280.827 366.122 285.714 363.645 C 288.403 362.282,293.279 359.143,296.551 356.669 C 299.823 354.195,302.603 352.272,302.728 352.397 C 302.854 352.521,302.519 355.295,301.984 358.562 C 301.449 361.828,301.006 366.975,300.999 370.000 C 300.987 375.206,300.791 375.633,297.322 377.996 L 293.658 380.492 297.113 381.053 C 302.054 381.856,302.647 382.444,303.347 387.223 C 303.691 389.575,304.271 392.625,304.635 394.000 L 305.296 396.500 302.652 394.079 C 298.801 390.554,298.259 392.276,301.809 396.759 L 304.860 400.611 294.596 401.758 C 288.951 402.388,281.220 403.924,277.416 405.170 C 269.518 407.757,254.855 417.126,249.922 422.737 L 246.614 426.500 255.377 426.790 C 260.888 426.972,266.433 426.507,270.320 425.535 C 279.576 423.221,291.643 416.881,299.757 410.068 C 303.731 406.731,307.382 404.000,307.869 404.000 C 308.357 404.000,309.324 404.686,310.020 405.524 C 312.326 408.302,312.218 406.214,309.893 403.069 L 307.610 399.982 309.805 395.464 C 311.012 392.979,312.000 390.323,312.000 389.561 C 312.000 387.399,324.730 378.850,331.736 376.307 C 339.571 373.463,345.175 370.643,351.000 366.613 L 355.500 363.500 350.500 363.000 C 347.232 362.673,345.587 362.067,345.750 361.250 C 346.068 359.662,345.532 359.680,342.200 361.369 C 340.715 362.122,334.589 363.717,328.586 364.913 C 315.991 367.422,316.032 367.441,316.028 359.000 C 316.027 355.975,315.266 350.254,314.338 346.286 L 312.651 339.071 316.326 331.241 C 319.983 323.447,320.829 320.000,319.084 320.000 C 318.580 320.000,314.781 322.265,310.641 325.034 M269.403 345.670 C 270.278 348.238,270.816 350.517,270.598 350.735 C 270.380 350.953,268.977 349.526,267.480 347.563 C 265.247 344.635,264.982 343.727,266.002 342.498 C 266.686 341.674,267.372 341.000,267.528 341.000 C 267.684 341.000,268.528 343.101,269.403 345.670 M262.502 352.639 C 264.999 353.597,262.321 354.973,258.000 354.953 C 254.707 354.937,254.615 354.850,256.441 353.468 C 258.569 351.859,259.970 351.667,262.502 352.639 M370.500 401.120 C 355.809 404.496,328.000 416.829,328.000 419.970 C 328.000 420.993,339.460 418.771,348.500 415.993 C 356.508 413.533,377.163 403.713,379.010 401.488 C 380.056 400.227,379.807 400.015,377.372 400.100 C 375.793 400.156,372.700 400.614,370.500 401.120 M389.322 412.750 C 387.249 427.253,389.173 446.541,393.946 459.099 C 396.827 466.679,396.725 467.000,391.441 467.000 C 388.900 467.000,387.135 466.590,387.454 466.074 C 388.734 464.003,380.358 450.394,373.500 443.404 C 366.753 436.526,358.000 430.701,358.000 433.090 C 358.000 433.711,359.432 436.907,361.182 440.190 C 364.455 446.331,370.474 453.213,377.500 458.848 C 380.776 461.476,381.228 462.230,380.000 463.013 C 379.175 463.539,376.700 463.982,374.500 463.997 C 365.115 464.060,353.415 469.126,344.831 476.843 C 337.987 482.995,338.355 484.000,347.451 484.000 C 355.998 484.000,363.949 482.527,369.000 480.008 C 372.999 478.014,382.000 476.445,382.000 477.743 C 382.000 478.218,380.396 480.158,378.435 482.054 C 374.270 486.081,369.000 493.728,369.000 495.747 C 369.000 496.756,370.580 496.294,374.633 494.099 C 379.036 491.714,379.866 491.491,378.431 493.076 C 376.618 495.080,376.629 495.091,379.365 494.051 C 380.888 493.472,383.047 492.510,384.162 491.913 C 385.990 490.935,386.119 491.058,385.479 493.164 C 384.261 497.174,384.419 497.487,387.500 497.164 C 395.712 496.303,408.180 487.488,412.125 479.755 C 413.211 477.626,415.287 475.428,416.791 474.814 C 419.496 473.711,419.493 473.707,414.750 472.296 C 412.137 471.519,410.000 470.499,410.000 470.028 C 410.000 469.168,417.884 463.000,418.983 463.000 C 419.308 463.000,420.992 465.813,422.726 469.250 C 424.832 473.424,425.900 474.772,425.940 473.309 C 426.041 469.605,427.464 469.890,433.616 474.848 C 439.006 479.191,448.440 483.829,458.250 486.959 C 460.313 487.617,462.000 488.549,462.000 489.030 C 462.000 489.512,457.942 492.002,452.982 494.563 C 446.753 497.780,442.074 501.120,437.852 505.360 C 431.144 512.099,426.338 518.671,427.366 519.699 C 427.728 520.061,430.522 519.570,433.574 518.608 C 437.754 517.290,439.461 517.137,440.486 517.988 C 442.340 519.527,448.069 516.542,454.699 510.581 C 457.501 508.062,462.877 504.411,466.646 502.469 C 470.416 500.526,475.300 497.422,477.500 495.570 L 481.500 492.203 481.463 481.852 C 481.401 464.325,475.824 451.438,463.379 440.063 C 455.075 432.474,454.653 432.795,455.233 446.250 C 455.761 458.497,457.548 464.742,462.975 473.299 C 466.185 478.361,465.518 479.217,460.916 475.941 C 454.656 471.483,440.906 466.017,429.860 463.596 C 427.698 463.122,427.137 462.339,426.757 459.259 C 426.392 456.308,427.123 453.833,430.158 447.748 C 435.077 437.885,438.563 424.000,436.120 424.000 C 435.636 424.000,432.633 426.025,429.446 428.500 C 423.003 433.503,422.196 433.777,421.354 431.250 C 419.806 426.607,413.586 414.000,412.842 414.000 C 411.638 414.000,411.801 433.191,413.067 440.462 C 414.005 445.847,413.887 447.213,412.094 451.763 C 410.972 454.609,409.604 459.730,409.054 463.143 C 408.505 466.556,407.501 469.691,406.823 470.110 C 404.948 471.268,399.814 467.872,400.644 466.023 C 401.020 465.185,402.450 461.350,403.822 457.500 C 407.175 448.094,408.000 430.572,405.597 419.839 C 403.304 409.597,402.477 408.569,400.507 413.516 C 397.321 421.522,397.259 421.625,396.640 420.000 C 396.326 419.175,395.121 415.913,393.963 412.750 C 392.804 409.587,391.471 407.000,391.000 407.000 C 390.529 407.000,389.774 409.587,389.322 412.750 M315.284 427.001 C 303.403 431.225,282.073 444.971,286.145 445.779 C 291.009 446.746,314.761 434.359,320.924 427.642 C 323.813 424.494,322.693 424.366,315.284 427.001 M544.416 456.100 C 541.162 458.354,536.821 461.812,534.768 463.785 C 532.716 465.757,530.857 467.174,530.638 466.935 C 530.419 466.696,528.784 464.117,527.006 461.205 C 525.228 458.292,523.266 456.078,522.648 456.284 C 520.064 457.145,518.006 467.288,518.241 478.000 C 518.412 485.806,517.978 490.325,516.549 495.613 L 514.628 502.726 507.945 504.879 C 504.270 506.062,498.616 508.750,495.381 510.852 C 488.569 515.278,479.965 524.155,481.872 524.791 C 484.228 525.576,497.271 520.667,503.010 516.835 C 510.115 512.090,517.365 504.394,516.602 502.406 C 516.246 501.478,517.220 500.227,519.271 498.976 C 521.047 497.893,522.728 497.006,523.007 497.004 C 523.286 497.002,524.816 499.137,526.406 501.750 C 528.348 504.941,529.460 506.008,529.792 505.000 C 532.074 498.085,531.597 498.178,537.086 503.578 L 542.091 508.500 531.795 509.090 C 520.487 509.737,512.172 511.572,513.687 513.087 C 514.204 513.604,517.299 514.525,520.564 515.133 C 530.917 517.061,531.190 517.347,525.500 520.318 C 522.750 521.754,519.375 523.835,518.000 524.942 L 515.500 526.956 519.250 526.978 C 523.556 527.003,523.671 527.240,521.128 530.846 C 516.000 538.118,509.593 555.926,511.440 557.773 C 512.802 559.135,525.351 551.425,530.965 545.776 C 537.194 539.508,541.310 532.736,544.503 523.500 C 546.536 517.622,546.658 517.494,550.539 517.227 C 553.582 517.018,556.526 517.978,563.246 521.372 L 571.993 525.790 565.317 528.463 C 555.578 532.362,541.457 541.869,543.107 543.416 C 543.323 543.618,545.638 543.454,548.250 543.051 C 551.016 542.623,553.000 542.703,553.000 543.240 C 553.000 543.748,551.411 546.875,549.469 550.189 C 545.211 557.454,542.768 563.101,543.546 563.880 C 544.461 564.794,554.615 559.093,561.399 553.857 C 567.390 549.231,573.796 541.647,578.095 534.087 C 581.763 527.638,584.288 526.498,594.860 526.515 L 604.220 526.531 603.573 521.024 C 602.833 514.725,599.348 506.504,595.155 501.164 L 592.278 497.500 592.769 484.000 C 593.260 470.509,593.259 470.501,591.240 472.306 C 590.128 473.299,587.786 476.801,586.034 480.087 C 584.283 483.373,582.034 486.836,581.037 487.781 C 579.706 489.043,579.120 491.413,578.832 496.696 C 578.206 508.202,576.764 507.850,571.267 494.848 C 569.325 490.257,567.059 483.913,566.230 480.750 C 565.401 477.587,564.372 475.000,563.942 475.000 C 563.512 475.000,562.341 477.363,561.339 480.250 C 560.020 484.052,559.516 488.452,559.511 496.206 L 559.505 506.912 556.276 503.783 C 554.218 501.788,552.264 498.270,550.885 494.077 C 549.695 490.460,547.660 485.377,546.361 482.783 C 543.407 476.881,543.410 475.098,546.388 469.217 C 548.548 464.951,552.000 454.865,552.000 452.818 C 552.000 451.279,550.329 452.002,544.416 456.100 M506.434 461.553 C 503.752 467.618,499.600 482.506,498.640 489.500 C 498.146 493.100,498.232 493.313,499.495 491.628 C 503.048 486.890,511.324 457.990,509.616 456.283 C 509.292 455.958,507.860 458.330,506.434 461.553 M512.593 462.750 C 511.015 467.850,508.989 479.842,508.467 487.174 C 507.779 496.844,508.954 496.155,511.325 485.500 C 513.836 474.211,514.889 455.333,512.593 462.750 M399.000 466.000 C 399.000 466.550,398.550 467.000,398.000 467.000 C 397.450 467.000,397.000 466.550,397.000 466.000 C 397.000 465.450,397.450 465.000,398.000 465.000 C 398.550 465.000,399.000 465.450,399.000 466.000 M395.500 480.549 C 390.976 484.529,383.987 489.320,383.465 488.798 C 383.275 488.608,385.615 485.876,388.666 482.726 C 392.684 478.578,394.941 477.004,396.856 477.015 C 399.461 477.030,399.440 477.082,395.500 480.549 M425.641 481.002 C 416.558 484.789,409.156 489.808,402.202 496.894 C 396.448 502.758,388.655 514.633,389.580 516.129 C 390.185 517.109,398.860 513.817,404.829 510.343 C 407.209 508.957,409.404 508.071,409.707 508.374 C 410.009 508.676,409.749 510.940,409.128 513.405 C 407.855 518.461,407.593 532.000,408.768 532.000 C 409.989 532.000,420.516 522.846,423.719 519.000 C 430.983 510.276,434.719 500.265,435.661 486.999 C 436.414 476.385,436.536 476.458,425.641 481.002 M542.339 487.093 C 543.334 489.894,543.977 492.356,543.768 492.565 C 543.218 493.116,536.000 487.014,536.000 485.999 C 536.000 484.974,538.854 482.000,539.837 482.000 C 540.218 482.000,541.344 484.292,542.339 487.093 M538.608 492.175 C 539.098 492.967,538.769 493.125,537.582 492.670 C 536.622 492.301,535.423 492.000,534.918 492.000 C 534.413 492.000,534.000 491.309,534.000 490.465 C 534.000 489.254,534.411 489.150,535.944 489.970 C 537.014 490.543,538.212 491.535,538.608 492.175 M476.500 490.961 C 479.834 491.766,479.205 492.208,472.149 494.016 C 467.128 495.303,466.409 494.973,467.954 492.086 C 469.110 489.927,471.121 489.662,476.500 490.961 M569.362 498.500 C 569.712 499.414,569.363 500.000,568.469 500.000 C 567.661 500.000,567.000 499.325,567.000 498.500 C 567.000 497.675,567.402 497.000,567.893 497.000 C 568.384 497.000,569.045 497.675,569.362 498.500 M574.864 511.469 C 574.569 511.765,572.228 511.719,569.663 511.367 C 564.710 510.688,564.291 509.995,566.047 505.377 L 567.094 502.623 571.248 506.777 C 573.533 509.062,575.160 511.173,574.864 511.469 M591.888 531.302 C 589.351 533.611,583.321 538.650,578.487 542.500 C 573.653 546.350,566.391 553.455,562.349 558.288 C 551.577 571.170,552.286 572.066,565.996 562.895 C 571.016 559.537,575.308 556.975,575.535 557.201 C 575.761 557.427,575.475 559.317,574.900 561.400 C 574.325 563.483,574.160 565.483,574.533 565.844 C 574.906 566.205,577.874 563.615,581.129 560.088 C 588.544 552.054,599.885 530.446,597.779 528.366 C 596.746 527.347,595.612 527.912,591.888 531.302 M604.031 536.968 C 594.893 546.453,587.422 562.868,588.214 571.720 L 588.553 575.500 595.026 568.959 C 602.061 561.850,606.969 553.626,609.324 545.000 C 611.578 536.745,612.225 531.000,610.902 531.000 C 610.285 531.000,607.193 533.685,604.031 536.968 " stroke="none" fill="black" fill-rule="evenodd"/></svg>