<?xml version="1.0" encoding="UTF-8"?>
<svg id="Layer_1" data-name="Layer 1" xmlns="http://www.w3.org/2000/svg" viewBox="0 0 128 128">
  <defs>
    <style>
      .cls-1 {
        fill: none;
        stroke: gray;
        stroke-miterlimit: 10;
        stroke-width: 8px;
      }
    </style>
  </defs>
  <path class="cls-1" d="M82.85,94.24c1.95-4.19,5.3-8.11,6.21-12.8.92-4.08-.07-10.08-3.99-11.86-6.33-2.61-22.6,4.02-25.67,10.02-2.04,3.71-.79,8.43-1.52,12.33-.96,3.9-4.36,2.86-5.82-.12-1.16-2.15-1.84-5.05-2.42-7.54-.77-3.29-1.15-6.75.5-9.78,1.21-2.43,3.54-5.16,4.02-7.95.8-3.59-2.12-9.25,2.5-11,5.75-1.28,6.94,7.9,16.3,7.43,2.96.04,6-.51,7.93-2.15,2.36-2,3.51-4.91,5.92-6.91,3.6-2.98,9.27-5.56,9.63-10.69.24-2.38-.95-4.8-3.11-5.89-2.36-1.34-5.48-1.15-8.04-2.26-5.47-2.58-6.74-9.85-14.05-6.72-5.17,1.97-9.23,5.54-13.79,8.27-3.41,1.99-7.99,2.5-10.72,5.37-2.03,2.11-2.66,5.53-5.3,7.02-2.03,1.18-5.43,1.16-7.47,2.89-1.52,1.21-2.51,3.19-2.24,5.14.31,3.04,4.02,5.51,4.96,8.69.55,1.74.2,3.51-.47,5.26-1.39,3.36-3.16,6.99-2.64,10.76.54,5.7,7.82,6.75,11.17,10.96,1.82,1.89,3.06,4.22,4.24,6.53,1.13,2.15,2.44,4.87,4.88,5.44,1.76.36,3.18-.7,4.47-1.74,1.6-1.46,3.53-2.38,5.76-2.44,6.33-.38,15.69,1.3,18.67-6.12l.09-.16Z"/>
</svg>