<svg id="svg" version="1.1" width="800" height="800" xmlns="http://www.w3.org/2000/svg"><path d="M354.284 42.306 C 352.516 42.963,272.102 100.875,175.587 171.000 L 0.105 298.500 0.061 317.000 L 0.017 335.500 209.746 459.000 C 325.097 526.925,420.021 583.175,420.688 584.000 C 427.646 592.609,432.350 595.133,438.542 593.579 C 443.071 592.442,448.066 586.956,448.629 582.499 C 449.264 577.476,376.651 61.303,374.337 54.388 C 372.026 47.485,369.634 44.471,364.993 42.614 C 360.289 40.732,358.654 40.685,354.284 42.306 M351.357 85.250 C 352.185 89.899,417.000 550.869,417.000 552.113 C 417.000 552.682,416.399 553.001,415.665 552.823 C 412.579 552.076,22.082 321.412,22.359 320.500 C 22.685 319.425,348.936 82.000,350.088 82.000 C 350.467 82.000,351.038 83.463,351.357 85.250 " stroke="none" fill="black" fill-rule="evenodd"/></svg>