<svg id="svg" version="1.1" width="800" height="800" xmlns="http://www.w3.org/2000/svg"><path d="M576.716 146.617 C 576.360 146.974,573.241 147.414,569.784 147.597 C 566.328 147.780,561.025 148.060,558.000 148.220 C 554.975 148.380,551.868 148.916,551.095 149.410 C 550.045 150.083,549.904 149.955,550.537 148.905 C 551.202 147.802,551.074 147.737,549.942 148.601 C 549.149 149.206,546.025 149.609,543.000 149.496 C 539.975 149.383,537.050 149.550,536.500 149.867 C 535.502 150.442,528.393 150.985,522.260 150.955 C 520.477 150.946,517.687 151.627,516.059 152.469 C 512.834 154.137,510.587 154.546,512.987 153.029 C 514.166 152.284,514.024 152.122,512.307 152.252 C 511.114 152.342,510.406 152.848,510.733 153.378 C 511.080 153.939,510.597 154.059,509.574 153.667 C 508.609 153.296,507.298 153.320,506.660 153.719 C 504.981 154.768,503.000 154.948,503.000 154.050 C 503.000 153.625,501.875 153.492,500.500 153.755 C 499.125 154.018,498.000 154.631,498.000 155.117 C 498.000 155.602,497.523 156.000,496.941 156.000 C 496.359 156.000,496.160 155.550,496.500 155.000 C 497.376 153.583,495.661 153.758,494.053 155.250 C 492.964 156.261,492.860 156.232,493.508 155.095 C 494.085 154.083,493.938 153.921,492.979 154.513 C 492.247 154.965,490.040 155.368,488.074 155.408 C 485.910 155.452,484.232 156.076,483.820 156.990 C 483.245 158.269,483.130 158.245,483.070 156.838 C 483.032 155.925,482.338 155.274,481.529 155.393 C 479.564 155.681,478.310 157.000,480.000 157.000 C 480.733 157.000,481.044 157.289,480.691 157.643 C 480.337 157.996,479.289 157.658,478.362 156.893 C 477.045 155.806,476.582 155.776,476.252 156.756 C 476.019 157.447,475.418 157.758,474.915 157.447 C 474.412 157.136,474.000 157.319,474.000 157.852 C 474.000 158.386,473.212 158.672,472.250 158.488 C 471.288 158.304,469.825 158.112,469.000 158.061 C 467.667 157.980,467.667 157.860,469.000 156.982 C 470.163 156.216,469.950 156.072,468.053 156.339 C 466.707 156.528,465.435 157.317,465.227 158.092 C 464.933 159.185,465.085 159.164,465.909 158.000 C 466.561 157.077,466.975 156.958,466.985 157.691 C 467.010 159.633,465.424 160.031,463.439 158.579 C 461.435 157.114,458.620 157.576,459.626 159.205 C 459.965 159.752,459.233 159.660,458.000 159.000 C 456.767 158.340,456.019 158.222,456.338 158.737 C 456.677 159.287,453.937 159.669,449.708 159.661 C 445.744 159.654,440.800 159.931,438.721 160.275 C 435.928 160.738,435.125 160.589,435.643 159.701 C 436.029 159.040,435.289 159.400,434.000 160.500 C 432.711 161.600,431.985 161.938,432.387 161.250 C 432.789 160.563,432.679 160.000,432.142 160.000 C 431.606 160.000,430.960 160.563,430.708 161.250 C 430.354 162.217,429.939 162.184,428.875 161.103 C 428.006 160.221,427.960 159.966,428.750 160.412 C 429.438 160.800,430.000 160.641,430.000 160.059 C 430.000 158.781,430.225 158.788,426.243 159.930 C 423.982 160.579,423.000 160.526,423.000 159.756 C 423.000 159.148,421.766 159.742,420.257 161.076 C 417.941 163.123,417.801 163.159,419.360 161.307 C 421.182 159.144,421.174 159.118,418.811 159.370 C 417.493 159.510,415.903 159.942,415.277 160.329 C 414.651 160.716,413.855 160.574,413.508 160.014 C 413.083 159.325,412.241 159.336,410.911 160.047 C 409.829 160.627,409.205 161.523,409.524 162.039 C 409.846 162.560,409.376 162.698,408.468 162.349 C 407.159 161.847,407.099 161.553,408.166 160.876 C 409.077 160.298,408.610 160.026,406.691 160.015 C 405.146 160.007,404.141 160.419,404.457 160.931 C 405.340 162.360,403.585 162.996,401.952 161.840 C 400.781 161.010,400.848 160.924,402.302 161.394 C 403.359 161.736,403.851 161.568,403.493 160.989 C 402.567 159.490,400.012 159.806,399.362 161.500 C 399.045 162.325,398.358 163.000,397.834 163.000 C 397.310 163.000,397.160 162.550,397.500 162.000 C 398.037 161.131,396.617 160.554,395.654 161.250 C 395.463 161.387,394.498 160.829,393.509 160.008 C 391.861 158.640,391.767 158.691,392.381 160.625 C 393.001 162.580,392.682 162.733,387.992 162.733 C 385.210 162.733,383.197 162.469,383.520 162.146 C 383.843 161.824,385.658 161.693,387.554 161.856 C 389.449 162.020,391.000 161.765,391.000 161.289 C 391.000 159.951,381.783 160.390,379.168 161.853 C 377.162 162.976,376.661 162.919,375.585 161.447 C 374.407 159.836,374.172 159.841,371.584 161.537 C 370.071 162.528,367.224 163.446,365.256 163.578 C 363.288 163.709,362.177 163.509,362.786 163.132 C 363.396 162.755,363.564 161.912,363.159 161.257 C 362.600 160.353,361.773 160.405,359.712 161.474 C 357.538 162.602,357.000 162.623,357.000 161.579 C 357.000 160.062,352.345 160.633,351.331 162.274 C 350.928 162.925,351.212 163.007,352.095 162.494 C 352.868 162.046,353.150 162.064,352.721 162.535 C 351.227 164.177,348.771 163.842,348.271 161.928 C 347.717 159.811,343.593 159.231,342.434 161.107 C 341.973 161.852,342.445 161.994,343.875 161.540 C 345.044 161.169,346.000 161.284,346.000 161.796 C 346.000 162.842,340.775 162.911,340.000 161.875 C 339.405 161.079,336.677 160.727,332.323 160.885 C 330.203 160.962,328.995 161.582,328.689 162.750 C 328.301 164.236,328.215 164.254,328.116 162.867 C 328.052 161.968,327.074 160.991,325.943 160.695 C 324.421 160.297,324.145 160.470,324.883 161.359 C 325.611 162.237,325.276 162.534,323.640 162.463 C 322.407 162.409,320.972 162.122,320.450 161.826 C 319.927 161.530,316.929 161.379,313.786 161.490 C 310.644 161.601,308.238 161.424,308.441 161.096 C 308.643 160.768,307.770 160.500,306.500 160.500 C 305.230 160.500,304.357 160.769,304.560 161.097 C 305.103 161.975,295.716 161.580,294.250 160.663 C 293.554 160.228,293.000 160.338,293.000 160.911 C 293.000 161.476,291.443 161.881,289.540 161.809 C 287.637 161.737,286.294 161.333,286.555 160.911 C 287.479 159.416,282.464 159.460,280.039 160.969 C 278.462 161.949,277.854 162.051,278.348 161.250 C 278.842 160.448,278.539 160.000,277.500 160.000 C 276.610 160.000,276.110 160.369,276.388 160.819 C 276.667 161.270,275.523 161.437,273.846 161.191 C 271.753 160.883,271.212 160.487,272.120 159.926 C 272.847 159.477,273.128 158.795,272.745 158.412 C 272.362 158.029,271.362 158.284,270.524 158.980 C 269.686 159.676,269.000 159.910,269.000 159.500 C 269.000 159.090,268.315 159.324,267.477 160.019 C 266.204 161.076,266.057 161.014,266.584 159.641 C 266.934 158.729,266.723 158.000,266.107 158.000 C 265.498 158.000,264.993 158.563,264.985 159.250 C 264.975 160.081,264.649 159.997,264.015 159.000 C 263.274 157.835,262.659 157.749,261.264 158.613 C 259.883 159.468,259.151 159.387,258.103 158.265 C 256.971 157.053,256.593 157.034,255.885 158.152 C 255.173 159.276,255.028 159.272,255.015 158.128 C 255.003 157.021,254.709 156.996,253.500 158.000 C 252.675 158.685,252.000 158.798,252.000 158.252 C 252.000 157.706,250.088 157.237,247.750 157.210 C 237.518 157.091,229.392 156.411,228.059 155.563 C 227.108 154.957,226.480 155.060,226.212 155.865 C 225.901 156.796,225.475 156.809,224.403 155.919 C 223.332 155.031,223.000 155.038,223.000 155.949 C 223.000 156.703,222.408 156.551,221.394 155.537 C 220.069 154.212,219.511 154.155,218.202 155.215 C 217.283 155.960,216.903 156.021,217.298 155.362 C 218.243 153.785,211.907 152.914,210.058 154.367 C 208.952 155.236,208.791 155.209,209.367 154.250 C 209.844 153.456,209.528 153.000,208.500 153.000 C 207.610 153.000,207.160 153.450,207.500 154.000 C 208.305 155.302,207.368 155.268,204.814 153.900 C 203.213 153.044,202.930 153.078,203.534 154.055 C 204.086 154.949,203.906 155.057,202.905 154.433 C 202.132 153.951,197.450 153.434,192.500 153.285 C 169.935 152.603,155.184 152.489,155.499 152.999 C 155.688 153.304,153.741 153.497,151.171 153.426 C 148.602 153.356,146.095 153.524,145.601 153.800 C 145.106 154.076,142.882 154.466,140.657 154.667 C 126.930 155.903,115.248 162.602,109.392 172.595 C 104.181 181.486,105.062 196.496,111.602 210.230 C 119.884 227.625,137.521 248.372,164.659 272.644 C 168.875 276.415,174.564 281.525,177.301 284.000 C 180.038 286.475,183.302 289.400,184.553 290.500 C 188.459 293.933,198.004 302.286,203.874 307.409 C 210.597 313.277,238.688 339.737,240.926 342.311 C 241.792 343.307,246.775 348.482,252.000 353.811 C 266.188 368.281,282.203 390.045,284.517 398.000 C 284.917 399.375,285.659 401.020,286.166 401.655 C 287.011 402.714,290.241 413.034,291.595 419.000 C 294.484 431.734,292.182 450.422,285.989 464.500 C 285.505 465.600,284.127 468.750,282.927 471.500 C 281.726 474.250,280.419 476.725,280.022 477.000 C 279.624 477.275,277.851 480.118,276.082 483.318 C 272.721 489.395,270.686 492.215,267.750 494.865 C 266.788 495.734,266.000 496.874,266.000 497.399 C 266.000 498.288,264.726 499.746,254.750 510.277 C 252.688 512.454,251.000 514.602,251.000 515.050 C 251.000 515.498,250.100 516.151,249.000 516.500 C 247.900 516.849,247.000 517.522,247.000 517.996 C 247.000 519.580,207.153 558.358,197.008 566.647 C 195.088 568.216,192.107 570.850,190.383 572.500 C 188.660 574.150,185.117 577.300,182.510 579.500 C 179.902 581.700,176.446 584.625,174.829 586.000 C 157.787 600.491,138.996 619.506,130.646 630.709 C 124.999 638.285,116.207 653.852,115.590 657.365 C 115.481 657.989,114.844 660.108,114.176 662.073 C 111.665 669.462,112.433 686.070,115.567 692.130 C 116.378 693.697,117.018 695.219,116.991 695.512 C 116.752 698.057,131.039 713.000,133.712 713.000 C 134.836 713.000,136.315 713.675,137.000 714.500 C 137.685 715.325,139.090 716.000,140.122 716.000 C 141.155 716.000,142.000 716.450,142.000 717.000 C 142.000 717.550,143.098 718.000,144.441 718.000 C 145.784 718.000,147.165 718.457,147.510 719.016 C 147.856 719.575,148.557 719.774,149.069 719.457 C 149.581 719.141,150.000 719.333,150.000 719.884 C 150.000 720.434,150.979 720.697,152.176 720.466 C 153.373 720.236,154.835 720.426,155.426 720.889 C 157.101 722.203,162.000 722.836,162.000 721.739 C 162.000 721.198,162.675 721.315,163.500 722.000 C 164.325 722.685,165.000 722.910,165.000 722.500 C 165.000 722.090,165.563 722.211,166.250 722.768 C 167.609 723.868,172.976 724.098,197.700 724.114 C 207.266 724.120,214.714 723.688,215.889 723.059 C 217.278 722.316,218.075 722.312,218.528 723.046 C 218.966 723.755,219.700 723.674,220.781 722.799 C 221.983 721.825,222.196 721.813,221.633 722.750 C 221.220 723.438,221.359 724.000,221.941 724.000 C 222.523 724.000,223.000 723.620,223.000 723.156 C 223.000 722.692,225.947 722.460,229.550 722.641 C 233.152 722.821,235.885 722.623,235.623 722.199 C 235.361 721.775,236.576 721.400,238.323 721.364 C 240.071 721.329,242.805 720.942,244.399 720.504 C 246.602 719.899,247.113 720.007,246.528 720.954 C 245.931 721.921,246.218 721.954,247.814 721.100 C 249.227 720.344,250.689 720.311,252.492 720.997 C 254.297 721.683,254.914 721.669,254.470 720.951 C 254.061 720.290,254.863 720.058,256.663 720.319 C 258.223 720.544,260.136 720.227,260.913 719.614 C 261.967 718.783,262.432 718.819,262.748 719.756 C 262.981 720.447,263.663 720.709,264.264 720.337 C 264.865 719.966,271.464 719.537,278.928 719.385 C 286.393 719.233,292.500 719.036,292.500 718.948 C 292.500 718.859,298.350 718.672,305.500 718.532 C 312.650 718.392,318.500 718.178,318.500 718.055 C 318.500 717.933,319.492 717.723,320.704 717.587 C 321.916 717.452,322.739 717.614,322.532 717.947 C 322.326 718.281,325.041 718.601,328.565 718.658 C 333.087 718.732,334.772 718.430,334.294 717.631 C 333.841 716.875,334.106 716.896,335.092 717.693 C 335.979 718.410,337.119 718.545,337.950 718.031 C 338.711 717.561,340.271 717.529,341.417 717.960 C 342.562 718.392,344.512 718.367,345.750 717.905 C 347.080 717.408,348.000 717.448,348.000 718.001 C 348.000 718.516,348.659 718.684,349.464 718.375 C 350.270 718.066,353.982 717.679,357.714 717.515 C 361.446 717.351,364.725 717.114,365.000 716.990 C 365.275 716.865,365.950 716.864,366.500 716.987 C 371.207 718.043,373.148 718.048,372.502 717.003 C 372.050 716.272,372.559 716.332,373.895 717.167 C 375.589 718.224,376.391 718.237,378.000 717.232 C 379.100 716.545,380.000 716.415,380.000 716.944 C 380.000 717.472,381.688 717.727,383.750 717.510 C 385.813 717.293,387.500 717.055,387.500 716.981 C 387.500 716.907,388.288 716.696,389.250 716.512 C 390.212 716.328,391.000 716.508,391.000 716.913 C 391.000 717.846,396.164 717.635,397.782 716.635 C 398.477 716.205,399.000 716.389,399.000 717.063 C 399.000 717.919,399.358 717.947,400.299 717.167 C 401.319 716.320,407.500 716.144,407.500 716.962 C 407.500 717.067,408.287 717.304,409.250 717.488 C 410.212 717.672,411.436 717.075,411.969 716.161 C 412.540 715.184,412.952 715.015,412.970 715.750 C 412.986 716.438,413.477 717.000,414.059 717.000 C 414.641 717.000,414.797 716.480,414.405 715.845 C 413.918 715.058,414.136 714.966,415.091 715.556 C 417.043 716.763,424.995 716.718,425.015 715.500 C 425.025 714.839,425.279 714.841,425.765 715.506 C 426.672 716.747,440.971 716.812,442.905 715.584 C 443.871 714.969,444.087 715.051,443.595 715.845 C 443.127 716.603,443.761 717.000,445.441 717.000 C 446.848 717.000,448.000 716.495,448.000 715.878 C 448.000 715.141,448.430 715.081,449.250 715.702 C 450.630 716.746,463.169 716.631,464.906 715.558 C 465.508 715.186,466.000 715.274,466.000 715.753 C 466.000 716.233,468.025 716.625,470.500 716.625 C 472.975 716.625,475.000 716.204,475.000 715.690 C 475.000 715.119,475.487 715.126,476.250 715.707 C 476.938 716.231,479.189 716.557,481.254 716.432 C 483.319 716.307,485.263 716.616,485.573 717.119 C 485.884 717.621,486.570 717.766,487.098 717.439 C 488.714 716.441,496.019 716.222,496.596 717.155 C 496.894 717.638,497.670 717.700,498.319 717.294 C 500.075 716.197,502.000 716.059,502.000 717.031 C 502.000 717.501,504.363 717.869,507.250 717.849 C 510.137 717.829,513.175 717.908,514.000 718.025 C 514.825 718.142,516.361 717.883,517.414 717.449 C 518.563 716.976,519.094 717.039,518.742 717.608 C 518.385 718.186,523.036 718.545,530.674 718.528 C 537.558 718.513,543.330 718.725,543.500 719.000 C 544.188 720.114,595.786 718.716,601.000 717.442 C 602.375 717.107,605.300 716.629,607.500 716.381 C 609.700 716.133,612.175 715.641,613.000 715.286 C 613.825 714.931,615.175 714.555,616.000 714.449 C 622.805 713.574,637.201 706.752,644.378 701.000 C 649.659 696.768,656.950 685.689,659.842 677.500 C 664.922 663.118,666.202 653.843,666.740 627.533 C 667.170 606.465,665.902 566.942,664.428 555.500 C 663.994 552.126,663.300 539.040,662.494 519.000 C 661.812 502.041,661.820 317.161,662.504 310.814 C 663.393 302.552,664.945 270.071,665.362 251.000 C 665.645 238.035,664.586 214.215,663.495 209.000 C 663.208 207.625,662.351 203.191,661.592 199.147 C 659.508 188.051,654.184 175.942,647.882 167.970 C 643.926 162.965,632.684 154.000,630.365 154.000 C 629.686 154.000,627.863 153.481,626.315 152.846 C 618.287 149.556,609.173 148.118,593.500 147.667 C 591.300 147.604,589.169 147.090,588.765 146.526 C 588.310 145.890,588.025 146.022,588.015 146.872 C 588.003 147.940,587.687 147.985,586.589 147.074 C 585.598 146.252,584.980 146.223,584.514 146.978 C 583.789 148.150,578.848 147.968,577.932 146.735 C 577.619 146.314,577.072 146.261,576.716 146.617 M453.000 158.059 C 453.000 158.641,453.450 158.840,454.000 158.500 C 454.550 158.160,455.000 157.684,455.000 157.441 C 455.000 157.198,454.550 157.000,454.000 157.000 C 453.450 157.000,453.000 157.477,453.000 158.059 M440.000 159.059 C 440.000 159.641,440.450 159.840,441.000 159.500 C 441.550 159.160,442.000 158.684,442.000 158.441 C 442.000 158.198,441.550 158.000,441.000 158.000 C 440.450 158.000,440.000 158.477,440.000 159.059 M364.365 161.219 C 363.696 162.302,366.180 162.172,367.987 161.029 C 369.147 160.296,368.965 160.127,367.161 160.263 C 365.889 160.359,364.631 160.789,364.365 161.219 M284.729 161.604 C 284.397 161.936,283.534 161.972,282.813 161.683 C 282.015 161.364,282.252 161.127,283.417 161.079 C 284.471 161.036,285.061 161.272,284.729 161.604 M333.000 163.607 C 333.000 163.823,332.325 164.000,331.500 164.000 C 330.675 164.000,330.000 163.564,330.000 163.031 C 330.000 162.499,330.675 162.322,331.500 162.638 C 332.325 162.955,333.000 163.391,333.000 163.607 M379.000 199.059 C 379.000 199.641,378.550 199.840,378.000 199.500 C 377.450 199.160,377.000 199.332,377.000 199.882 C 377.000 201.243,378.742 202.227,379.365 201.219 C 379.642 200.771,382.035 200.497,384.684 200.610 C 387.333 200.724,390.063 200.352,390.750 199.786 C 391.629 199.061,392.000 199.113,392.000 199.961 C 392.000 200.624,392.563 200.965,393.250 200.718 C 393.938 200.472,395.260 200.661,396.189 201.138 C 397.209 201.662,398.125 201.607,398.500 201.000 C 398.915 200.328,399.757 200.335,401.038 201.020 C 402.655 201.886,402.849 201.769,402.276 200.276 C 401.636 198.608,401.758 198.612,404.389 200.335 C 408.073 202.749,411.652 203.348,412.300 201.660 C 412.884 200.139,419.000 200.607,419.000 202.173 C 419.000 202.693,419.457 202.835,420.016 202.490 C 420.575 202.144,420.774 201.443,420.457 200.931 C 420.141 200.419,420.148 200.000,420.473 200.000 C 420.798 200.000,421.471 201.012,421.969 202.250 C 422.806 204.332,422.883 204.351,423.000 202.500 C 423.117 200.649,423.194 200.668,424.031 202.750 C 425.085 205.371,429.000 205.866,429.000 203.378 C 429.000 202.094,428.705 202.000,427.589 202.926 C 426.502 203.828,426.006 203.799,425.429 202.799 C 425.017 202.084,425.048 201.834,425.498 202.241 C 425.948 202.649,426.844 202.545,427.489 202.009 C 428.280 201.352,429.285 201.599,430.581 202.768 C 431.636 203.721,433.850 204.500,435.500 204.500 C 437.150 204.500,439.068 205.259,439.763 206.187 C 440.991 207.829,445.358 208.388,444.362 206.776 C 444.087 206.331,443.443 206.226,442.931 206.543 C 442.419 206.859,442.000 206.641,442.000 206.059 C 442.000 204.434,445.659 204.802,447.465 206.608 C 448.350 207.493,450.186 208.280,451.547 208.358 C 453.019 208.443,453.835 208.985,453.561 209.699 C 453.097 210.911,456.071 212.361,459.207 212.451 C 460.146 212.478,461.499 213.300,462.214 214.279 C 462.930 215.257,464.854 216.157,466.490 216.279 C 470.143 216.550,475.504 220.896,474.018 222.382 C 472.402 223.998,472.829 224.918,475.000 224.500 C 476.821 224.149,477.493 225.070,477.083 227.355 C 476.999 227.826,477.414 228.794,478.007 229.508 C 478.790 230.452,478.732 230.934,477.792 231.278 C 476.757 231.656,476.749 232.014,477.750 233.075 C 478.438 233.804,479.000 235.237,479.000 236.259 C 479.000 237.281,479.343 237.906,479.763 237.646 C 480.420 237.240,480.645 252.620,480.002 254.000 C 479.874 254.275,479.693 254.950,479.600 255.500 C 478.568 261.606,476.428 268.958,474.878 271.716 C 473.824 273.593,473.222 275.550,473.540 276.065 C 473.858 276.579,473.650 277.000,473.078 277.000 C 472.506 277.000,471.735 278.238,471.365 279.750 C 470.995 281.262,470.424 282.725,470.096 283.000 C 469.768 283.275,468.600 285.279,467.500 287.453 C 466.400 289.627,464.488 292.505,463.250 293.849 C 462.012 295.193,461.000 296.708,461.000 297.217 C 461.000 297.726,460.438 298.733,459.750 299.454 C 459.063 300.175,456.944 302.730,455.043 305.133 C 447.977 314.059,429.012 331.814,427.000 331.386 C 426.725 331.327,425.150 332.280,423.500 333.502 C 420.662 335.604,409.842 341.324,405.500 343.018 C 393.769 347.595,385.372 349.266,374.000 349.287 C 351.670 349.328,329.337 339.529,308.392 320.500 C 307.181 319.400,305.585 318.007,304.845 317.405 C 302.498 315.495,293.419 305.419,290.409 301.385 C 288.816 299.248,286.947 297.140,286.256 296.700 C 285.565 296.260,285.000 295.454,285.000 294.908 C 285.000 294.362,284.529 293.372,283.953 292.708 C 281.904 290.344,276.125 281.000,276.712 281.000 C 277.041 281.000,276.531 280.139,275.579 279.088 C 274.628 278.036,273.749 276.573,273.626 275.838 C 273.504 275.102,272.847 273.488,272.167 272.250 C 271.486 271.012,271.197 270.000,271.524 270.000 C 271.851 270.000,271.765 269.438,271.334 268.750 C 270.903 268.063,270.670 266.768,270.817 265.873 C 270.964 264.978,270.416 263.990,269.599 263.676 C 268.615 263.299,268.274 262.217,268.591 260.473 C 268.853 259.025,268.675 258.083,268.195 258.380 C 267.714 258.677,267.228 257.475,267.114 255.710 C 267.000 253.944,266.811 251.070,266.693 249.322 C 266.575 247.575,266.144 245.811,265.736 245.402 C 265.327 244.994,265.700 243.581,266.563 242.263 C 267.816 240.351,267.886 239.568,266.909 238.391 C 266.033 237.335,265.992 236.608,266.764 235.836 C 267.358 235.242,267.606 234.136,267.315 233.378 C 267.010 232.585,267.422 232.000,268.286 232.000 C 269.111 232.000,270.054 231.302,270.382 230.448 C 270.723 229.558,270.555 229.157,269.989 229.507 C 269.445 229.843,269.000 229.390,269.000 228.500 C 269.000 227.610,269.436 227.152,269.970 227.481 C 270.503 227.811,271.592 226.520,272.388 224.613 C 273.482 221.996,274.301 221.266,275.728 221.639 C 277.093 221.996,277.956 221.352,278.836 219.317 L 280.055 216.500 278.170 218.886 C 277.134 220.198,276.020 220.841,275.694 220.314 C 275.080 219.321,278.339 216.000,279.928 216.000 C 280.426 216.000,281.060 216.563,281.338 217.250 C 281.653 218.032,281.872 217.877,281.921 216.838 C 281.968 215.844,282.703 215.282,283.750 215.439 C 284.712 215.583,286.101 214.850,286.835 213.810 C 287.745 212.522,288.820 212.126,290.210 212.567 C 291.570 212.998,292.022 212.845,291.566 212.107 C 291.133 211.406,291.833 211.000,293.472 211.000 C 294.913 211.000,296.332 210.297,296.671 209.416 C 297.138 208.199,297.460 208.126,298.063 209.102 C 298.668 210.081,299.172 210.103,300.266 209.194 C 301.046 208.547,302.018 208.351,302.425 208.759 C 302.833 209.166,303.017 208.982,302.833 208.350 C 302.650 207.717,302.950 207.200,303.500 207.200 C 304.050 207.200,304.390 207.597,304.256 208.082 C 304.122 208.566,305.418 208.108,307.137 207.063 C 308.855 206.018,310.951 205.428,311.795 205.751 C 312.912 206.180,313.101 205.954,312.492 204.920 C 312.029 204.133,312.593 204.321,313.759 205.342 C 315.826 207.153,315.852 207.145,315.344 204.842 C 314.932 202.977,315.045 202.805,315.898 204.000 C 316.487 204.825,316.976 205.107,316.985 204.628 C 316.993 204.148,317.615 204.266,318.367 204.890 C 319.414 205.759,320.058 205.626,321.117 204.320 C 321.892 203.365,321.981 202.927,321.319 203.324 C 320.670 203.714,319.913 203.669,319.638 203.224 C 319.363 202.779,319.999 202.350,321.050 202.271 C 322.101 202.192,323.218 202.544,323.532 203.053 C 323.852 203.569,325.185 203.270,326.552 202.374 C 327.898 201.492,329.000 201.015,329.000 201.315 C 329.000 201.615,330.296 201.489,331.879 201.035 C 334.469 200.292,334.719 200.424,334.368 202.354 C 334.153 203.535,334.229 203.985,334.537 203.356 C 334.844 202.727,335.974 202.442,337.048 202.723 C 338.122 203.004,339.000 202.771,339.000 202.205 C 339.000 201.640,339.788 201.300,340.750 201.450 C 341.712 201.601,343.512 201.347,344.750 200.887 C 346.313 200.305,347.005 200.424,347.015 201.275 C 347.025 202.059,347.380 201.960,348.000 201.000 C 348.533 200.175,348.976 200.006,348.985 200.625 C 348.993 201.244,350.117 201.750,351.482 201.750 C 352.929 201.750,353.698 201.321,353.327 200.720 C 352.919 200.060,353.194 200.005,354.095 200.566 C 355.645 201.532,364.000 201.946,364.001 201.058 C 364.001 200.751,365.126 200.435,366.501 200.356 C 367.875 200.276,369.000 200.614,369.000 201.106 C 369.000 201.598,369.450 202.000,370.000 202.000 C 370.550 202.000,370.947 201.662,370.882 201.250 C 370.569 199.272,371.139 198.996,372.571 200.429 C 374.666 202.524,375.660 202.409,376.290 200.000 C 376.830 197.934,379.000 197.181,379.000 199.059 M359.000 200.000 C 359.000 200.550,358.212 200.993,357.250 200.985 C 355.754 200.972,355.718 200.828,357.000 200.000 C 358.887 198.780,359.000 198.780,359.000 200.000 M338.000 201.000 C 338.000 201.550,337.523 202.000,336.941 202.000 C 336.359 202.000,336.160 201.550,336.500 201.000 C 336.840 200.450,337.316 200.000,337.559 200.000 C 337.802 200.000,338.000 200.450,338.000 201.000 M411.000 200.974 C 411.000 201.441,410.338 201.726,409.529 201.607 C 407.198 201.265,406.896 200.433,409.043 200.272 C 410.119 200.191,411.000 200.507,411.000 200.974 M328.000 203.000 C 328.000 203.550,328.477 204.000,329.059 204.000 C 329.641 204.000,329.840 203.550,329.500 203.000 C 329.160 202.450,328.684 202.000,328.441 202.000 C 328.198 202.000,328.000 202.450,328.000 203.000 M413.750 202.662 C 414.438 202.940,415.563 202.940,416.250 202.662 C 416.938 202.385,416.375 202.158,415.000 202.158 C 413.625 202.158,413.063 202.385,413.750 202.662 M465.000 214.000 C 465.000 214.550,464.802 215.000,464.559 215.000 C 464.316 215.000,463.840 214.550,463.500 214.000 C 463.160 213.450,463.359 213.000,463.941 213.000 C 464.523 213.000,465.000 213.450,465.000 214.000 M564.532 312.140 C 565.064 312.431,568.075 313.262,571.221 313.987 C 575.113 314.884,578.112 316.376,580.597 318.653 C 582.607 320.494,584.645 322.000,585.126 322.000 C 585.607 322.000,586.000 322.620,586.000 323.378 C 586.000 324.135,586.662 325.305,587.472 325.977 C 589.320 327.510,593.628 336.836,595.032 342.339 C 595.616 344.628,596.526 347.625,597.055 349.000 C 598.176 351.914,600.901 372.301,602.001 386.000 C 603.362 402.948,602.933 460.388,601.355 472.500 C 600.567 478.550,599.424 487.438,598.816 492.250 C 598.208 497.063,597.325 501.000,596.855 501.000 C 596.385 501.000,596.000 502.283,596.000 503.851 C 596.000 506.887,594.132 513.168,592.981 514.000 C 592.601 514.275,591.753 516.148,591.097 518.162 C 590.440 520.175,589.250 522.074,588.452 522.380 C 587.653 522.687,587.000 523.545,587.000 524.288 C 587.000 527.149,576.889 534.207,570.500 535.806 C 567.364 536.591,554.016 536.570,548.515 535.772 C 538.791 534.362,521.606 525.530,506.982 514.429 C 480.431 494.274,462.206 470.382,454.383 445.475 C 452.011 437.926,451.561 434.752,451.550 425.500 C 451.543 419.450,451.857 413.150,452.249 411.500 C 452.641 409.850,453.368 406.700,453.866 404.500 C 456.184 394.252,466.714 372.838,472.511 366.583 C 473.880 365.105,475.000 363.546,475.000 363.117 C 475.000 360.715,506.668 330.966,511.317 329.000 C 512.354 328.562,514.882 327.047,522.538 322.278 C 528.010 318.869,539.503 314.375,545.500 313.299 C 555.336 311.534,562.609 311.092,564.532 312.140 M385.194 508.966 C 394.984 511.131,406.842 515.613,412.903 519.439 C 415.135 520.848,417.236 522.000,417.573 522.000 C 419.115 522.000,437.756 536.882,444.286 543.327 C 452.780 551.708,467.000 568.357,467.000 569.920 C 467.000 570.514,467.367 571.000,467.815 571.000 C 468.263 571.000,469.385 572.462,470.309 574.250 C 472.132 577.780,474.207 581.207,475.000 582.000 C 475.992 582.992,479.000 590.099,479.000 591.451 C 479.000 592.211,479.446 592.983,479.991 593.167 C 480.537 593.350,481.085 594.737,481.209 596.250 C 481.334 597.763,481.815 599.000,482.277 599.000 C 482.740 599.000,482.840 599.450,482.500 600.000 C 482.160 600.550,482.367 601.000,482.960 601.000 C 483.611 601.000,483.789 601.991,483.411 603.500 C 483.066 604.875,483.169 606.000,483.642 606.000 C 484.114 606.000,484.560 607.688,484.632 609.750 C 484.705 611.813,484.962 615.203,485.203 617.284 C 485.444 619.365,485.137 621.840,484.521 622.784 C 483.905 623.728,483.474 625.513,483.564 626.750 C 483.654 627.987,483.290 629.000,482.756 629.000 C 482.223 629.000,482.054 629.698,482.382 630.552 C 482.771 631.566,482.575 631.856,481.819 631.388 C 481.045 630.910,480.872 631.225,481.299 632.336 C 481.650 633.252,481.454 634.000,480.862 634.000 C 480.270 634.000,480.045 634.675,480.362 635.500 C 480.723 636.442,480.351 637.000,479.362 637.000 C 478.348 637.000,477.999 637.554,478.382 638.552 C 478.723 639.442,478.555 639.843,477.989 639.493 C 477.445 639.157,477.000 639.359,477.000 639.941 C 477.000 640.523,476.155 641.000,475.122 641.000 C 474.090 641.000,472.676 641.685,471.981 642.523 C 470.909 643.814,471.000 643.937,472.576 643.333 C 474.231 642.697,474.274 642.794,472.967 644.209 C 471.932 645.331,471.132 645.498,470.250 644.777 C 469.563 644.215,468.986 644.148,468.969 644.628 C 468.951 645.107,467.752 646.364,466.304 647.421 C 464.856 648.477,463.993 648.820,464.387 648.182 C 464.855 647.425,464.567 647.229,463.558 647.616 C 462.707 647.943,462.244 648.585,462.527 649.044 C 462.811 649.503,462.246 649.861,461.272 649.838 C 460.297 649.816,458.071 650.252,456.325 650.807 C 454.579 651.363,452.868 651.535,452.522 651.189 C 452.177 650.844,452.177 651.299,452.524 652.201 C 453.021 653.497,452.608 653.781,450.552 653.555 C 449.122 653.398,447.738 653.614,447.478 654.035 C 447.218 654.457,445.654 654.708,444.002 654.593 C 442.351 654.479,441.000 654.749,441.000 655.193 C 441.000 655.637,440.523 656.000,439.941 656.000 C 439.359 656.000,439.220 655.438,439.633 654.750 C 440.168 653.859,439.911 653.883,438.736 654.836 C 437.829 655.571,436.548 655.839,435.889 655.432 C 435.076 654.929,434.954 655.117,435.510 656.015 C 436.091 656.956,435.881 657.168,434.786 656.748 C 433.938 656.423,432.673 656.684,431.975 657.328 C 430.998 658.231,430.869 658.213,431.412 657.250 C 431.800 656.563,431.641 656.000,431.059 656.000 C 430.477 656.000,430.000 656.401,430.000 656.891 C 430.000 657.380,428.457 657.961,426.570 658.182 C 424.574 658.415,423.384 658.187,423.725 657.637 C 424.046 657.116,423.782 657.017,423.138 657.415 C 421.283 658.561,416.926 659.294,411.335 659.401 C 408.494 659.456,405.847 659.822,405.453 660.215 C 405.059 660.608,403.952 660.510,402.993 659.997 C 401.216 659.045,395.887 659.334,394.028 660.483 C 393.463 660.832,392.964 660.529,392.921 659.809 C 392.857 658.751,392.743 658.748,392.324 659.792 C 391.920 660.799,391.489 660.821,390.369 659.891 C 389.286 658.992,388.386 658.978,386.716 659.831 C 384.010 661.214,377.815 661.108,378.689 659.694 C 379.085 659.053,378.802 659.017,377.905 659.595 C 377.132 660.093,372.225 660.553,367.000 660.618 C 361.775 660.682,355.700 660.786,353.500 660.847 C 344.754 661.091,328.130 660.463,327.533 659.867 C 327.185 659.518,325.347 659.583,323.450 660.011 C 321.384 660.477,320.000 660.407,320.000 659.836 C 320.000 659.311,319.588 659.136,319.085 659.447 C 318.582 659.758,317.993 659.479,317.775 658.826 C 317.517 658.051,316.709 657.930,315.440 658.479 C 314.373 658.940,313.050 659.190,312.500 659.035 C 307.113 657.514,304.999 657.323,304.985 658.355 C 304.974 659.150,304.745 659.172,304.235 658.427 C 302.960 656.565,299.808 655.914,298.265 657.195 C 297.069 658.188,296.542 658.095,295.532 656.712 C 294.163 654.841,292.459 654.316,293.566 656.107 C 294.543 657.687,290.001 656.189,287.578 654.132 C 286.521 653.234,285.985 653.063,286.387 653.750 C 287.394 655.472,286.412 655.315,283.253 653.250 C 281.782 652.288,280.924 652.063,281.348 652.750 C 282.262 654.234,281.100 654.357,279.000 653.000 C 277.667 652.138,277.667 652.026,279.000 651.985 C 280.179 651.949,280.123 651.720,278.742 650.915 C 277.775 650.352,276.538 650.168,275.992 650.505 C 275.446 650.842,275.000 650.656,275.000 650.090 C 275.000 649.525,274.325 649.322,273.500 649.638 C 272.537 650.008,272.000 649.618,272.000 648.548 C 272.000 647.632,271.550 647.160,271.000 647.500 C 270.450 647.840,270.000 647.491,270.000 646.726 C 270.000 645.105,267.019 644.802,266.961 646.417 C 266.939 647.013,266.283 646.031,265.503 644.236 C 264.723 642.441,263.574 641.091,262.949 641.236 C 262.325 641.381,261.293 640.600,260.657 639.500 C 260.021 638.400,259.274 637.275,258.998 637.000 C 257.562 635.568,255.846 631.058,256.398 630.164 C 256.747 629.600,256.568 628.851,256.000 628.500 C 255.432 628.149,255.207 627.474,255.500 627.000 C 255.793 626.526,255.574 625.855,255.014 625.508 C 254.327 625.084,254.323 624.265,255.000 623.000 C 255.660 621.767,255.666 620.912,255.018 620.511 C 254.008 619.887,253.927 615.298,254.895 613.500 C 255.191 612.950,255.472 611.600,255.519 610.500 C 255.658 607.253,258.256 596.598,259.216 595.337 C 259.703 594.697,260.326 592.935,260.600 591.422 C 260.874 589.908,261.977 587.437,263.050 585.930 C 264.122 584.424,265.000 582.805,265.000 582.332 C 265.000 581.860,266.575 579.135,268.500 576.276 C 270.425 573.418,272.000 570.817,272.000 570.497 C 272.000 570.177,272.436 569.372,272.969 568.708 C 273.502 568.044,275.901 565.025,278.299 562.000 C 286.101 552.158,301.332 536.011,302.831 535.991 C 303.199 535.987,305.076 534.488,307.003 532.662 C 310.327 529.510,327.023 518.249,327.668 518.724 C 327.835 518.847,330.443 517.592,333.464 515.934 C 336.484 514.276,339.078 512.967,339.228 513.024 C 339.378 513.082,340.292 512.825,341.260 512.454 C 342.228 512.082,346.953 510.731,351.760 509.450 C 362.683 506.540,373.514 506.383,385.194 508.966 " stroke="none" fill="black" fill-rule="evenodd"/></svg>