<svg id="svg" version="1.1" width="800" height="800" xmlns="http://www.w3.org/2000/svg"><path d="M348.000 1.941 C 348.000 3.009,347.550 4.160,347.000 4.500 C 346.450 4.840,346.000 5.940,346.000 6.945 C 346.000 7.949,345.328 10.060,344.506 11.636 C 343.685 13.211,343.010 15.232,343.006 16.128 C 343.003 17.023,342.325 18.315,341.500 19.000 C 340.675 19.685,340.000 21.090,340.000 22.122 C 340.000 23.155,339.580 24.000,339.067 24.000 C 338.554 24.000,337.832 24.953,337.462 26.119 C 337.093 27.284,335.472 30.096,333.862 32.369 C 332.252 34.641,330.186 37.567,329.272 38.872 C 328.358 40.177,324.660 44.276,321.055 47.982 C 317.450 51.688,310.201 59.170,304.947 64.610 C 299.693 70.049,292.493 77.183,288.947 80.463 C 285.401 83.742,275.582 93.106,267.126 101.271 C 258.670 109.436,250.570 116.874,249.126 117.800 C 247.682 118.726,245.600 120.325,244.500 121.352 C 240.329 125.248,226.435 134.508,220.589 137.287 C 212.027 141.358,188.262 149.190,180.000 150.664 C 177.039 151.192,164.700 155.555,161.842 157.084 C 159.216 158.490,157.794 159.650,147.852 168.500 C 125.859 188.076,116.791 195.356,103.300 204.264 C 97.690 207.969,92.790 211.000,92.410 211.000 C 92.031 211.000,89.527 212.350,86.846 214.000 C 84.164 215.650,81.357 217.000,80.607 217.000 C 79.858 217.000,78.730 217.621,78.100 218.379 C 77.470 219.138,75.728 220.018,74.228 220.335 C 72.727 220.652,69.925 222.280,68.000 223.953 C 66.075 225.626,64.195 226.996,63.821 226.998 C 63.448 226.999,62.537 227.563,61.797 228.250 C 60.195 229.738,49.495 238.838,46.130 241.573 C 37.874 248.285,30.197 254.881,27.883 257.250 C 26.406 258.762,24.990 260.000,24.735 260.000 C 24.481 260.000,20.962 262.215,16.916 264.923 C 12.870 267.630,9.208 269.629,8.779 269.364 C 8.351 269.099,8.000 269.434,8.000 270.108 C 8.000 270.782,7.699 271.032,7.331 270.664 C 6.963 270.297,5.951 270.640,5.081 271.427 C 3.540 272.822,3.076 273.000,0.990 273.000 C 0.321 273.000,0.068 288.409,0.240 318.655 C 0.530 369.596,-0.239 364.270,7.000 365.466 C 18.072 367.296,36.612 372.741,43.179 376.091 C 45.280 377.163,47.000 377.776,47.000 377.453 C 47.000 377.130,49.138 378.573,51.750 380.659 C 57.271 385.067,66.579 394.000,65.652 394.000 C 65.303 394.000,66.268 395.238,67.795 396.750 C 69.323 398.262,73.027 402.762,76.026 406.750 C 79.025 410.738,81.848 414.000,82.299 414.000 C 82.749 414.000,82.854 414.427,82.531 414.950 C 82.208 415.472,82.869 416.395,84.000 417.000 C 85.131 417.605,85.792 418.528,85.469 419.050 C 85.146 419.573,85.598 420.000,86.472 420.000 C 87.347 420.000,88.322 420.675,88.638 421.500 C 88.955 422.325,89.855 423.000,90.638 423.000 C 91.422 423.000,92.321 423.672,92.636 424.494 C 92.952 425.316,93.546 425.781,93.957 425.526 C 94.369 425.272,95.559 425.710,96.603 426.500 C 97.646 427.290,99.423 427.951,100.550 427.968 C 101.678 427.986,103.206 428.563,103.947 429.250 C 105.042 430.267,105.137 430.220,104.455 429.000 C 103.732 427.707,103.850 427.690,105.308 428.872 C 106.239 429.627,107.000 429.996,107.000 429.692 C 107.000 429.388,108.463 429.598,110.250 430.159 C 112.037 430.720,116.425 431.344,120.000 431.547 C 139.614 432.658,143.078 432.930,143.877 433.424 C 145.072 434.162,159.976 435.394,168.292 435.442 C 172.954 435.469,175.347 435.057,175.920 434.130 C 176.953 432.459,176.141 429.000,174.717 429.000 C 174.139 429.000,173.940 428.727,174.273 428.393 C 174.940 427.727,173.697 425.984,170.250 422.750 C 169.013 421.589,168.000 420.094,168.000 419.427 C 168.000 418.760,167.261 417.930,166.357 417.583 C 165.453 417.237,164.959 416.708,165.258 416.409 C 165.896 415.771,146.080 395.724,140.985 391.852 C 139.068 390.396,136.506 388.258,135.292 387.102 C 134.077 385.946,132.882 385.000,132.635 385.000 C 132.388 385.000,129.107 382.976,125.343 380.502 C 121.579 378.028,118.154 376.003,117.732 376.002 C 117.309 376.001,114.126 374.276,110.658 372.169 C 107.190 370.062,101.236 366.832,97.426 364.992 C 93.617 363.152,90.169 361.163,89.765 360.573 C 89.321 359.923,89.019 359.895,89.000 360.500 C 88.980 361.167,88.724 361.167,88.235 360.500 C 87.831 359.950,83.987 357.755,79.693 355.622 C 75.398 353.490,70.294 350.115,68.349 348.122 C 59.597 339.157,57.426 326.833,62.604 315.500 C 67.045 305.782,75.516 293.418,82.347 286.687 C 88.427 280.697,105.897 266.302,113.524 261.000 C 115.501 259.625,117.701 257.972,118.411 257.327 C 122.492 253.622,153.973 232.583,160.978 228.879 C 164.015 227.273,170.325 223.897,175.000 221.375 C 179.675 218.854,186.200 215.376,189.500 213.646 C 192.800 211.916,196.850 209.384,198.500 208.021 C 202.482 204.731,214.614 192.263,219.000 186.954 C 229.630 174.085,239.288 163.372,246.349 156.614 C 252.620 150.612,262.475 143.609,266.350 142.401 C 267.532 142.032,268.725 141.432,269.000 141.067 C 269.275 140.703,273.775 139.079,279.000 137.458 C 287.821 134.723,289.537 134.523,303.000 134.661 C 320.788 134.844,324.969 135.433,331.643 138.702 C 341.366 143.462,353.000 156.931,353.000 163.426 C 353.000 164.622,353.461 166.061,354.025 166.625 C 355.372 167.972,355.875 172.002,356.502 186.500 C 357.719 214.595,358.069 218.945,359.423 222.781 C 360.206 225.002,360.613 227.054,360.326 227.340 C 360.040 227.627,360.468 229.130,361.278 230.681 C 363.484 234.902,367.000 242.642,367.000 243.277 C 367.000 243.583,367.970 246.009,369.156 248.667 C 370.341 251.325,371.418 254.005,371.548 254.623 C 371.679 255.241,372.480 257.266,373.329 259.123 C 374.178 260.980,375.304 264.075,375.832 266.000 C 376.361 267.925,377.934 271.525,379.329 274.000 C 380.725 276.475,382.854 280.449,384.061 282.831 C 385.269 285.212,386.986 287.441,387.878 287.782 C 388.770 288.123,390.322 289.325,391.326 290.451 C 392.331 291.578,392.807 291.825,392.384 291.000 C 391.756 289.773,391.889 289.721,393.117 290.714 C 394.321 291.688,394.903 291.589,396.061 290.214 C 397.777 288.176,400.618 281.603,401.445 277.754 C 401.770 276.244,402.085 274.794,402.144 274.530 C 406.169 256.751,407.033 240.960,404.607 229.480 C 403.792 225.619,401.052 216.169,398.520 208.480 C 392.881 191.359,388.333 172.846,387.470 163.500 C 385.795 145.349,386.696 126.830,390.096 109.500 C 392.777 95.836,393.244 92.571,394.529 78.500 C 395.287 70.206,397.974 53.920,398.985 51.500 C 403.280 41.214,408.070 30.931,409.000 29.999 C 410.216 28.782,420.128 9.342,422.385 3.750 L 423.898 0.000 385.949 0.000 C 349.051 0.000,348.000 0.054,348.000 1.941 M399.189 349.039 C 397.985 350.160,397.000 351.537,397.000 352.098 C 397.000 352.659,396.550 352.840,396.000 352.500 C 395.450 352.160,395.000 352.590,395.000 353.455 C 395.000 355.084,394.585 356.103,391.518 362.000 C 385.051 374.438,382.337 377.760,375.078 382.126 C 371.546 384.251,368.471 385.805,368.246 385.580 C 368.021 385.354,366.411 385.760,364.668 386.481 C 362.926 387.202,354.632 388.983,346.238 390.437 C 337.844 391.892,326.148 394.647,320.247 396.559 C 307.643 400.645,301.594 404.351,281.000 420.607 C 272.077 427.651,259.827 435.058,251.770 438.282 C 241.971 442.204,233.264 443.216,213.027 442.786 C 203.185 442.577,195.355 442.765,195.626 443.203 C 195.896 443.641,195.416 444.000,194.559 444.000 C 193.702 444.000,193.000 444.702,193.000 445.559 C 193.000 446.416,193.450 446.840,194.000 446.500 C 194.550 446.160,195.000 446.606,195.000 447.491 C 195.000 449.199,197.795 455.159,198.990 456.000 C 199.381 456.275,200.288 457.625,201.006 459.000 C 202.081 461.059,208.130 469.130,210.000 471.000 C 210.275 471.275,214.090 476.000,218.479 481.500 C 222.867 487.000,228.380 493.433,230.729 495.797 C 233.078 498.160,235.026 500.410,235.058 500.797 C 235.089 501.183,238.063 503.975,241.666 507.000 C 245.269 510.025,251.309 515.538,255.088 519.250 C 258.867 522.962,262.230 526.000,262.561 526.000 C 262.892 526.000,265.085 527.575,267.435 529.500 C 269.784 531.425,272.040 533.000,272.449 533.000 C 272.857 533.000,274.386 533.814,275.846 534.808 C 277.306 535.803,281.875 537.657,286.000 538.929 C 290.125 540.201,294.850 541.750,296.500 542.371 C 298.150 542.992,299.950 543.561,300.500 543.635 C 301.050 543.709,301.837 543.877,302.250 544.010 C 302.663 544.142,303.337 544.317,303.750 544.399 C 306.750 544.995,314.685 547.442,315.500 548.022 C 316.050 548.414,319.004 549.656,322.064 550.784 C 325.125 551.911,329.982 554.221,332.858 555.917 C 335.735 557.612,338.496 559.000,338.994 559.000 C 339.493 559.000,340.260 559.563,340.700 560.252 C 341.140 560.940,342.850 562.177,344.500 563.000 C 346.150 563.823,347.725 564.723,348.000 564.998 C 348.275 565.274,351.200 566.833,354.500 568.462 C 357.800 570.092,360.821 571.892,361.214 572.462 C 361.606 573.033,362.281 573.538,362.714 573.584 C 363.146 573.630,364.850 574.267,366.500 575.000 C 368.150 575.733,369.725 576.408,370.000 576.500 C 370.275 576.592,371.767 577.192,373.315 577.834 C 374.863 578.475,377.116 579.000,378.322 579.000 C 379.527 579.000,382.061 579.444,383.953 579.987 C 389.724 581.642,396.054 582.339,406.000 582.414 C 417.998 582.505,423.217 581.632,429.500 578.485 C 439.190 573.631,443.190 568.335,446.252 556.311 C 448.271 548.380,448.480 545.303,448.348 525.500 C 448.207 504.426,446.956 490.995,443.875 477.500 C 438.279 452.990,421.759 394.698,416.525 381.000 C 415.349 377.922,411.710 366.347,411.495 365.000 C 411.191 363.101,408.458 356.132,407.345 354.420 C 406.601 353.276,406.295 352.039,406.663 351.670 C 407.032 351.302,406.636 351.000,405.783 351.000 C 404.931 351.000,403.998 350.100,403.710 349.000 C 403.048 346.466,401.940 346.475,399.189 349.039 " stroke="none" fill="black" fill-rule="evenodd"/></svg>