<svg id="svg" version="1.1" width="800" height="800" xmlns="http://www.w3.org/2000/svg"><path d="M643.500 159.136 C 618.302 180.249,593.510 190.000,565.022 190.000 C 547.199 190.000,528.387 185.683,510.306 177.443 C 502.135 173.720,502.128 173.810,509.836 182.922 C 529.980 206.733,540.000 232.507,539.995 260.500 C 539.992 278.256,536.595 293.484,528.328 312.804 C 526.373 317.371,524.945 321.279,525.154 321.488 C 525.363 321.697,528.677 319.261,532.517 316.075 C 564.085 289.886,597.656 280.385,633.000 287.637 C 642.515 289.589,659.386 295.148,666.062 298.531 C 668.887 299.963,671.415 300.918,671.679 300.654 C 671.943 300.390,669.363 296.872,665.944 292.837 C 657.689 283.093,652.313 274.698,646.198 262.000 C 635.486 239.756,632.630 216.671,637.601 192.500 C 639.367 183.914,644.341 168.688,648.183 160.106 C 649.757 156.589,650.923 153.613,650.773 153.491 C 650.623 153.370,647.350 155.910,643.500 159.136 M365.813 308.683 C 366.534 308.972,367.397 308.936,367.729 308.604 C 368.061 308.272,367.471 308.036,366.417 308.079 C 365.252 308.127,365.015 308.364,365.813 308.683 M290.498 383.802 C 279.193 417.247,257.222 441.082,228.178 451.406 C 217.419 455.231,208.924 456.942,193.908 458.310 L 180.500 459.531 190.000 462.858 C 209.898 469.827,223.301 478.017,236.000 490.969 C 253.742 509.064,262.512 530.874,264.765 562.500 L 265.549 573.500 268.427 565.000 C 280.677 528.827,301.060 506.643,332.269 495.515 C 341.823 492.109,356.957 489.055,364.926 488.926 C 367.442 488.885,371.525 488.543,374.000 488.166 L 378.500 487.480 369.000 484.096 C 352.521 478.225,337.896 469.900,326.781 460.062 C 316.040 450.554,304.351 431.638,300.431 417.420 C 296.714 403.935,295.979 399.927,295.069 388.140 C 294.544 381.343,293.962 375.629,293.776 375.443 C 293.590 375.257,292.115 379.018,290.498 383.802 M176.079 380.583 C 176.127 381.748,176.364 381.985,176.683 381.188 C 176.972 380.466,176.936 379.603,176.604 379.271 C 176.272 378.939,176.036 379.529,176.079 380.583 M176.000 384.441 C 176.000 385.298,176.450 386.000,177.000 386.000 C 177.550 386.000,178.000 385.577,178.000 385.059 C 178.000 384.541,177.550 383.840,177.000 383.500 C 176.450 383.160,176.000 383.584,176.000 384.441 M200.813 417.683 C 201.534 417.972,202.397 417.936,202.729 417.604 C 203.061 417.272,202.471 417.036,201.417 417.079 C 200.252 417.127,200.015 417.364,200.813 417.683 M440.250 497.720 C 438.830 498.227,438.528 501.000,439.893 501.000 C 440.735 501.000,442.362 497.967,441.774 497.494 C 441.623 497.373,440.938 497.475,440.250 497.720 M647.702 579.333 C 647.385 580.159,647.773 581.083,648.563 581.386 C 650.175 582.004,650.388 581.160,649.124 579.166 C 648.436 578.081,648.171 578.112,647.702 579.333 M240.951 600.237 C 219.910 630.481,192.315 640.434,156.750 630.607 C 151.938 629.277,148.000 628.360,148.000 628.569 C 148.000 628.778,152.100 631.958,157.112 635.636 C 167.951 643.592,175.680 652.577,181.081 663.500 C 188.597 678.703,189.655 694.277,184.540 714.441 C 183.156 719.895,182.190 724.523,182.392 724.725 C 182.594 724.927,184.893 722.101,187.502 718.446 C 209.594 687.485,240.117 678.860,279.000 692.589 C 281.019 693.302,279.968 692.406,270.835 685.634 C 266.619 682.508,260.706 677.289,257.695 674.037 C 251.871 667.747,245.000 657.269,245.000 654.678 C 245.000 653.820,244.613 652.879,244.139 652.586 C 242.834 651.779,240.209 641.313,239.478 634.000 C 238.694 626.151,240.285 613.697,243.482 602.657 C 244.780 598.176,245.722 594.389,245.575 594.242 C 245.428 594.095,243.347 596.793,240.951 600.237 M485.000 606.000 C 485.000 606.550,485.477 607.000,486.059 607.000 C 486.641 607.000,486.840 606.550,486.500 606.000 C 486.160 605.450,485.684 605.000,485.441 605.000 C 485.198 605.000,485.000 605.450,485.000 606.000 M416.000 606.378 C 416.000 606.585,416.675 607.315,417.500 608.000 C 418.729 609.020,419.000 608.951,419.000 607.622 C 419.000 606.730,418.325 606.000,417.500 606.000 C 416.675 606.000,416.000 606.170,416.000 606.378 M630.479 615.750 C 617.138 635.806,601.657 647.484,582.243 652.136 C 574.848 653.908,571.572 654.144,561.000 653.665 C 553.310 653.317,545.614 652.324,541.000 651.083 C 536.875 649.974,532.375 648.765,531.000 648.397 C 527.563 647.477,528.803 648.548,539.759 655.964 C 556.018 666.969,567.224 681.083,572.738 697.500 C 575.152 704.687,575.429 706.974,575.462 720.000 C 575.499 734.147,574.798 739.274,571.315 750.315 C 570.480 752.963,569.988 755.321,570.223 755.556 C 570.457 755.790,573.673 751.512,577.368 746.049 C 588.865 729.054,602.818 717.865,619.500 712.262 C 626.687 709.848,628.974 709.571,642.000 709.538 C 656.147 709.501,661.274 710.202,672.315 713.685 C 674.963 714.520,677.325 715.008,677.565 714.768 C 677.804 714.529,674.384 711.978,669.965 709.100 C 655.603 699.745,644.284 687.555,637.599 674.243 C 629.295 657.707,628.951 635.680,636.584 609.250 C 636.941 608.013,637.023 607.000,636.767 607.000 C 636.510 607.000,633.681 610.938,630.479 615.750 " stroke="none" fill="black" fill-rule="evenodd"/></svg>