<?xml version="1.0" encoding="UTF-8"?>
<svg id="Layer_1" data-name="Layer 1" xmlns="http://www.w3.org/2000/svg" viewBox="0 0 128 128">
  <defs>
    <style>
      .cls-1 {
        fill: gray;
      }
    </style>
  </defs>
  <path class="cls-1" d="M56.72,87.36h-6.33c0-16.89-13.74-30.64-30.64-30.64v-6.33c16.89,0,30.64-13.74,30.64-30.64h6.33c0,16.89,13.74,30.64,30.64,30.64v6.33c-16.89,0-30.64,13.74-30.64,30.64ZM34.71,53.55c8.37,3.72,15.12,10.47,18.84,18.84,3.72-8.37,10.47-15.12,18.84-18.84-8.37-3.72-15.12-10.47-18.84-18.84-3.72,8.37-10.47,15.12-18.84,18.84Z"/>
  <path class="cls-1" d="M89.31,108.25h-3.91c0-10.44-8.49-18.94-18.94-18.94v-3.91c10.44,0,18.94-8.49,18.94-18.94h3.91c0,10.44,8.49,18.94,18.94,18.94v3.91c-10.44,0-18.94,8.49-18.94,18.94ZM75.71,87.36c5.18,2.3,9.34,6.47,11.64,11.64,2.3-5.18,6.47-9.34,11.64-11.64-5.18-2.3-9.34-6.47-11.64-11.64-2.3,5.18-6.47,9.34-11.64,11.64Z"/>
</svg>